<svg width="20" height="20" viewBox="0 0 20 20" fill="none" xmlns="http://www.w3.org/2000/svg">
<path d="M3 6.79077L3.00575 6.78128C3.05618 6.69627 3.07446 6.59692 3.116 6.51813C3.24119 6.28064 3.45494 6.10508 3.71118 6.03567C3.97168 5.96451 4.24979 6.00159 4.48271 6.13853C4.62291 6.21977 4.89427 6.50413 5.02065 6.63088L5.65135 7.26346L8.45556 10.0773L9.3846 11.0094C9.47382 11.0988 9.94481 11.6006 10.0225 11.5897C10.1437 11.4944 10.3763 11.2462 10.4993 11.1223L11.3735 10.2444L14.3077 7.30114L15.0002 6.60677C15.3481 6.25789 15.5923 5.94393 16.1357 6.00848C16.3948 6.03973 16.6308 6.17307 16.7918 6.37909C16.9534 6.58489 16.9199 6.67598 17 6.80608V7.1446C16.943 7.28014 16.8846 7.4781 16.7884 7.58266C16.5058 7.88948 16.1946 8.1914 15.8998 8.48669L14.2201 10.1709L11.8632 12.5342C11.4736 12.9249 11.0855 13.3176 10.6937 13.7059C10.2952 14.1008 9.69596 14.0965 9.29887 13.7024C8.93947 13.3457 8.58335 12.9853 8.22545 12.6271L5.93984 10.3353L4.15485 8.54504C3.84489 8.23428 3.52753 7.92418 3.22552 7.60502C3.08986 7.46166 3.06343 7.25995 3 7.16901V6.79077Z" fill="#060D1C"/>
</svg>
