<svg width="203" height="103" viewBox="0 0 203 103" fill="none" xmlns="http://www.w3.org/2000/svg">
<rect width="203" height="103" rx="10" fill="white" fill-opacity="0.05"/>
<mask id="mask0_1_360" style="mask-type:luminance" maskUnits="userSpaceOnUse" x="40" y="15" width="122" height="73">
<path d="M162 15H40V88H162V15Z" fill="white"/>
</mask>
<g mask="url(#mask0_1_360)">
<path d="M41.5221 75.3778C42.7033 74.2162 44.5498 74.0935 46.1263 74.1663C49.532 74.3269 53.0612 73.9193 56.4334 74.3404C60.7017 74.8732 59.8256 79.8654 59.8647 82.9129C59.8919 85.0273 59.0128 87.0575 56.7934 87.5657C55.5714 87.9514 47.9896 87.8584 46.3194 87.8039C44.7708 87.3166 42.3665 87.5836 41.407 86.0127C40.2499 84.1183 40.521 78.3785 40.8694 76.2316C41.0685 75.769 41.1435 75.7344 41.5221 75.3778ZM55.1043 76.6646C52.8887 76.647 45.4762 76.1039 44.0981 77.3576C43.4806 77.9194 43.6286 79.699 43.6374 80.4755C43.6466 81.2875 43.696 82.108 43.6103 82.9166C43.684 83.4316 43.8758 84.7872 44.3754 84.9537C47.4383 85.8213 51.4834 85.3156 54.6919 85.2857C57.1074 85.2633 56.6516 82.3907 56.6757 80.7614C56.7051 78.7786 56.9732 77.7921 55.1043 76.6646Z" fill="white"/>
<path d="M41.5221 75.3778C42.7034 74.2162 44.5498 74.0935 46.1263 74.1663C49.532 74.3269 53.0612 73.9193 56.4334 74.3404C60.7017 74.8732 59.8257 79.8654 59.8648 82.9129C59.8919 85.0273 59.0128 87.0575 56.7934 87.5657C57.2915 86.8544 58.354 86.7935 58.9267 85.6544C59.7596 84.1339 59.4093 82.3476 59.4795 80.7104C59.6054 77.7766 59.6136 74.7907 55.8126 74.6404C51.882 74.4849 47.8201 74.5833 43.8779 74.59C43.4545 74.5907 42.14 75.2221 41.5221 75.3778Z" fill="white"/>
<path d="M55.1043 76.6647C57.9343 76.2149 57.2741 83.8187 56.2612 84.9331C55.0936 86.218 49.9889 85.5615 48.1088 85.7021C46.043 85.8563 42.8489 85.85 43.6103 82.9167C43.684 83.4316 43.8758 84.7873 44.3754 84.9538C47.4383 85.8214 51.4834 85.3156 54.6919 85.2858C57.1074 85.2634 56.6516 82.3908 56.6757 80.7614C56.7051 78.7787 56.9732 77.7922 55.1043 76.6647Z" fill="white"/>
<path d="M108.64 40.0931C108.957 39.7561 109.021 39.5716 109.416 39.4775C110.748 40.7587 112.651 43.0321 113.923 44.4641L121.884 53.3748C123.465 55.1494 125.194 57.2093 126.865 58.8724L114.157 58.8806C111.841 56.4451 109.551 53.6728 107.276 51.1706C106.515 50.3336 103.756 47.3044 103.231 46.4684C103.227 46.1827 108.089 40.6967 108.64 40.0931Z" fill="white"/>
<path d="M108.64 40.0931C108.957 39.7561 109.021 39.5716 109.416 39.4775C110.748 40.7587 112.651 43.0321 113.923 44.4641L121.884 53.3748C123.465 55.1494 125.194 57.2093 126.865 58.8724L114.157 58.8806C111.841 56.4451 109.551 53.6728 107.276 51.1706C106.515 50.3336 103.756 47.3044 103.231 46.4684C104.138 46.8537 112.874 56.9602 114.045 58.3209C117.55 58.5599 122.337 58.4161 125.902 58.3584C124.672 57.1467 123.001 55.1479 121.801 53.8051L114.356 45.4499C112.922 43.8232 111.359 41.9332 109.767 40.4549C109.45 40.1599 109.064 40.1271 108.64 40.0931Z" fill="white"/>
<path d="M82.3891 74.1853L85.7115 74.1836C85.6891 78.724 85.69 83.2644 85.7147 87.8047L82.5697 87.8122L74.5201 81.2885C73.3781 80.3559 71.3593 78.7986 70.3539 77.8151C70.2192 79.5652 70.223 85.9407 70.3745 87.8227C69.2831 87.8142 68.1544 87.7881 67.0671 87.8337L67.0624 74.1886L70.3485 74.1851L82.2164 83.8461L82.358 83.8119C82.4297 83.4094 82.4415 83.3362 82.4261 82.9305L82.3891 74.1853Z" fill="white"/>
<path d="M82.3891 74.1853L85.7116 74.1836C85.6891 78.724 85.6901 83.2644 85.7148 87.8047L82.5697 87.8122L74.5202 81.2885C73.3782 80.3559 71.3594 78.7986 70.354 77.8151C71.4741 78.1142 80.776 86.0251 82.6582 87.4358C83.545 87.4436 84.4972 87.4703 85.3781 87.4349C85.4798 83.3667 85.4521 78.6863 85.3768 74.6016C84.6216 74.5869 83.051 74.4261 82.5411 74.8988C82.379 76.6676 82.7555 81.837 82.4262 82.9305L82.3891 74.1853Z" fill="white"/>
<path d="M93.8684 74.193L97.194 74.1855C97.1763 78.7287 97.1822 83.2721 97.2122 87.8153L93.8746 87.7867C93.8978 83.2555 93.8957 78.7241 93.8684 74.193Z" fill="white"/>
<path d="M94.2984 74.6364C95.1075 74.6028 95.9717 74.6191 96.7857 74.6198C96.8037 78.8323 96.8617 83.2306 96.7823 87.4334L94.321 87.4376C94.2523 85.3527 94.2984 83.2347 94.2903 81.1452C94.2821 78.9901 94.1977 76.785 94.2984 74.6364Z" fill="white"/>
<path d="M40.8695 76.2305C40.5211 78.3773 40.2499 84.1171 41.4071 86.0115C42.3666 87.5824 44.7708 87.3155 46.3194 87.8027C41.3015 88.1179 40.0838 85.985 40.3708 81.3039C40.4791 79.5392 40.0802 77.9606 40.8695 76.2305Z" fill="white" fill-opacity="0.988235"/>
<path d="M75.2315 15.1963L87.5926 15.1987C88.4947 16.2026 89.9286 17.6693 90.695 18.7068C92.8798 20.7497 95.2068 23.7782 97.3163 25.9572C97.864 26.5229 99.1649 28.0949 99.6925 28.5374C101.738 30.8855 103.819 33.2036 105.934 35.4905L107.05 36.6785C101.727 43.2989 95.7814 49.6394 90.3228 56.1657C89.5837 57.0492 88.7258 58.0529 87.9386 58.8865L75.1413 58.8867L75.9151 58.1614C77.4092 56.24 80.2895 53.1828 81.9683 51.2656L94.5373 36.8413C92.526 34.4214 89.9969 31.757 87.8789 29.3727C83.6924 24.6213 79.4764 19.8957 75.2315 15.1963Z" fill="white"/>
<path d="M90.695 18.707C92.8798 20.7499 95.2068 23.7784 97.3163 25.9574C97.864 26.5231 99.1649 28.0951 99.6925 28.5376C101.738 30.8857 103.819 33.2038 105.934 35.4907L107.05 36.6787C101.727 43.2991 95.7814 49.6396 90.3228 56.1659C89.5837 57.0494 88.7258 58.0531 87.9386 58.8867L75.1413 58.8869L75.9151 58.1616C77.0277 58.6134 86.2605 58.4459 88.0522 58.3154C92.1502 53.8465 96.6435 48.3467 100.628 43.7119L104.46 39.2594C104.94 38.7068 106.06 37.497 106.381 36.9656C106.406 36.5567 106.468 36.4879 106.155 36.1482C102.867 32.5063 99.4981 28.9203 96.2202 25.2673C94.7055 23.5792 93.2834 21.7641 91.6083 20.1711C91.2468 19.8272 90.7946 19.196 90.695 18.707Z" fill="white"/>
<path d="M113.514 15.0428C117.446 14.9112 122.162 15.032 126.152 15.0331C121.82 20.251 116.617 25.8793 112.093 31.0274C111.132 32.0903 110.225 33.1015 109.313 34.2052C107.29 31.8536 104.884 29.1402 102.761 26.9144C106.062 23.0461 110.068 18.8344 113.514 15.0428Z" fill="#0068FE"/>
<path d="M104.313 74.1768L109.239 74.1833C110.115 74.9193 114.381 78.4122 114.824 79.0618C116.517 77.6274 118.984 75.4553 120.725 74.198L125.282 74.1911C122.683 76.3964 119.984 78.5696 117.419 80.7878L125.562 87.3085L125.909 87.6381C125.568 88.0131 123.553 87.7831 122.904 87.8143L121.255 87.7951C119.235 86.3037 116.788 83.9507 114.848 82.6289C112.956 84.3344 110.764 86.1138 108.805 87.7872C107.181 87.8091 105.556 87.811 103.932 87.7928C106.757 85.4331 109.721 83.0964 112.502 80.7257C111.48 80.3102 105.663 75.2101 104.313 74.1768Z" fill="white"/>
<path d="M104.313 74.1768L109.239 74.1833C110.115 74.9193 114.381 78.4122 114.824 79.0618C114.133 78.9757 110.146 75.3673 109.313 74.648C108.241 74.5233 106.587 74.6008 105.462 74.6235C106.333 75.4301 112.373 80.2287 112.502 80.7257C111.48 80.3102 105.663 75.2101 104.313 74.1768Z" fill="white"/>
<path d="M140.634 74.1865L144.489 74.2179C145.313 75.3392 146.477 77.293 147.265 78.5094C149.277 81.5903 151.268 84.6845 153.238 87.7918C151.928 87.8077 150.577 87.7826 149.264 87.775C146.983 84.3664 144.897 80.5726 142.514 77.0548C141.926 78.0763 141.324 79.0887 140.705 80.0921L139.025 82.7382C140.729 82.5881 142.405 82.6125 144.114 82.6107L145.635 85.1707C143.267 85.3016 139.934 85.1994 137.495 85.1985L135.902 87.7968L131.825 87.802C134.74 83.2307 137.745 78.8066 140.634 74.1865Z" fill="#0068FE"/>
<path d="M158.573 74.1998L161.918 74.1836L161.928 87.8051C160.826 87.7806 159.692 87.7999 158.59 87.8047L158.573 74.1998Z" fill="#0068FE"/>
</g>
</svg>
