<svg width="52" height="52" viewBox="0 0 52 52" fill="none" xmlns="http://www.w3.org/2000/svg">
<rect width="52" height="52" rx="10" fill="white" fill-opacity="0.05"/>
<path d="M13.808 19.9032C13.8104 19.3025 13.808 18.7028 13.8109 18.1014C13.8133 17.6003 14.0638 17.131 14.6145 17.1072C15.2621 17.0793 15.9153 17.0909 16.5639 17.0909L20.2317 17.092L26.8579 17.0926C28.0866 17.0885 29.3154 17.0907 30.5441 17.099L30.6339 17.1006C30.5917 18.8275 30.6471 20.5796 30.6363 22.3081C30.6316 23.0525 31.1427 23.2413 31.786 23.2463L36.3762 23.2407C37.0634 23.241 37.96 23.1886 38.6152 23.3C39.6026 23.4678 40.6109 24.1249 40.8749 25.1364C40.8995 25.2296 40.9604 25.4277 41 25.5127V31.4958C40.5893 32.2201 40.2121 32.1922 39.4449 32.1955C39.1617 32.1968 38.8833 32.2134 38.5984 32.1824C38.5063 32.4735 38.4179 32.7486 38.2767 33.0206C37.8521 33.8321 37.1221 34.4414 36.2478 34.7143C35.4058 34.9691 34.4972 34.8796 33.7212 34.4653C32.7151 33.9323 32.298 33.2172 31.9783 32.1809L25.6862 32.181C25.1723 32.1794 24.6584 32.1808 24.1446 32.1852C23.8577 32.1884 23.3443 32.2112 23.0851 32.1692C22.9538 32.5423 22.8365 32.8945 22.6304 33.236C22.1598 33.9985 21.4096 34.5466 20.5401 34.7632C19.6711 34.9714 18.755 34.8226 17.9967 34.35C17.1755 33.8433 16.6875 33.1135 16.4679 32.1853C15.7994 32.1718 14.504 32.3298 14.0679 31.9038C13.959 31.7973 13.8826 31.6621 13.8478 31.5139C13.7897 31.2571 13.8103 30.6063 13.8114 30.3049L13.8112 28.663C13.268 28.6976 12.2538 28.7011 11.7058 28.6233C11.3441 28.5718 11.1764 28.296 11 28.0097V27.5088C11.1304 27.3401 11.2672 27.0204 11.513 26.9541C12.0337 26.8137 12.885 26.8732 13.4439 26.8734L17.6283 26.8743C18.3442 26.8744 19.0587 26.8799 19.7782 26.864C20.8306 26.9099 20.9659 25.3073 20.0057 25.1699C19.5151 25.0998 18.6161 25.1491 18.0883 25.1494L13.3585 25.1506C12.8832 25.1525 12.4 25.1675 11.9248 25.1437C11.4256 25.1187 11.2415 24.8925 11 24.4941V23.9938C11.1739 23.7234 11.3294 23.4397 11.6736 23.3923C12.161 23.3252 12.7754 23.353 13.2718 23.3545L16.1398 23.3612C16.5263 23.3615 16.976 23.4058 17.3526 23.3199C17.5728 23.2698 17.783 23.1638 17.9093 22.9707C18.0371 22.7752 18.092 22.5225 18.0407 22.2937C17.9975 22.1005 17.9259 21.9226 17.7512 21.8135C17.3594 21.5689 14.477 21.6751 13.8463 21.6787C13.4183 21.6811 12.9006 21.7388 12.4884 21.606C12.2193 21.5194 11.9757 21.3281 11.9012 21.0455C11.8351 20.795 11.9041 20.4988 12.0343 20.2793C12.1416 20.0986 12.3365 19.9921 12.5359 19.9448C12.929 19.8514 13.4037 19.9065 13.808 19.9032ZM19.9796 33.0693C20.8624 32.9457 21.4754 32.1266 21.345 31.2448C21.2147 30.363 20.391 29.7563 19.5102 29.8934C18.6389 30.029 18.0401 30.842 18.1691 31.7143C18.298 32.5865 19.1064 33.1915 19.9796 33.0693ZM35.5361 33.064C36.4115 32.9245 37.0079 32.1016 36.868 31.2262C36.7281 30.3508 35.9048 29.7548 35.0295 29.8951C34.1548 30.0354 33.5592 30.858 33.699 31.7327C33.8389 32.6075 34.6612 33.2035 35.5361 33.064Z" fill="white"/>
<path d="M32.3873 17.2872C34.356 17.6407 35.718 18.98 36.7045 20.6277C36.8327 20.8417 37.1015 21.2209 37.1789 21.4449L37.1547 21.4921C35.9813 21.543 34.7541 21.4989 33.5772 21.5192C33.1885 21.5258 32.7513 21.4941 32.3752 21.5139C32.4281 20.2079 32.3783 18.6256 32.3873 17.2872Z" fill="white"/>
</svg>
