<svg width="52" height="52" viewBox="0 0 52 52" fill="none" xmlns="http://www.w3.org/2000/svg">
<rect width="52" height="52" rx="10" fill="white" fill-opacity="0.05"/>
<path d="M25.4885 12.8868C25.675 12.8812 25.8615 12.8779 26.0481 12.877C28.7773 12.8865 31.3907 13.9807 33.3126 15.9184C34.9718 17.5823 36.0095 19.7653 36.2524 22.1024C36.3292 22.8252 36.3153 23.5029 36.3132 24.2271C37.1612 24.5022 37.8579 24.9268 38.3945 25.6511C38.702 26.0665 38.9176 26.5426 39.0272 27.0478C39.1825 27.7639 39.1212 29.0241 39.1273 29.7932C39.1322 30.4155 39.1606 31.6337 39.0717 32.2164C38.9202 33.1927 38.3851 34.0682 37.5852 34.6482C36.7663 35.2505 35.7406 35.5005 34.7364 35.3425C34.7228 35.3682 34.7088 35.3937 34.6942 35.4188C33.6786 37.1581 32.1554 38.4048 30.1876 38.9118C29.8493 38.9993 29.5048 39.0611 29.1571 39.0967C28.5944 39.1499 27.93 39.1297 27.3538 39.1352C26.8049 39.1275 26.2481 39.1696 25.7028 39.0974C24.9761 39.0012 24.3566 38.4228 24.1829 37.72C24.0626 37.2279 24.1404 36.7083 24.3996 36.2731C24.7248 35.7296 25.3022 35.3848 25.9414 35.3811C26.6718 35.4011 27.4816 35.3015 28.2003 35.4157C29.1314 35.5637 29.5622 36.2314 29.7602 37.0622C29.7769 37.0588 29.7935 37.0551 29.81 37.0511C31.1699 36.7093 32.3081 35.7565 33.0165 34.5625C32.078 33.679 31.6205 32.8413 31.6257 31.5199C31.6295 30.5559 31.6212 29.585 31.6241 28.6203C31.6254 28.1774 31.6131 27.7501 31.676 27.3085C31.7333 26.8976 31.8608 26.4996 32.0529 26.1319C32.5823 25.1091 33.3656 24.5754 34.4338 24.2347C34.466 23.3132 34.4374 22.3234 34.2453 21.4225C33.9094 19.8466 33.1275 18.4004 31.9929 17.2562C30.4192 15.6606 28.2711 14.7629 26.0299 14.7646C23.786 14.7516 21.6294 15.6334 20.0373 17.2149C18.6667 18.5809 17.8101 20.3784 17.6123 22.3033C17.5487 22.9211 17.5631 23.6007 17.5633 24.2269C17.8179 24.3095 18.0661 24.4104 18.3061 24.5288C19.1934 24.9692 19.8679 25.746 20.1795 26.6864C20.5642 27.8594 20.2972 29.7008 20.3783 30.9647C20.3978 31.268 20.3772 31.833 20.337 32.1295C20.2848 32.5371 20.1632 32.9327 19.9773 33.2992C19.5183 34.2028 18.7207 34.8884 17.7584 35.2067C16.8255 35.5003 15.8147 35.4184 14.9412 34.9784C14.0432 34.5274 13.3628 33.7361 13.0517 32.7806C12.6975 31.6754 12.9548 29.8922 12.8744 28.6948C12.8491 28.3178 12.8736 27.6764 12.926 27.3085C12.9833 26.8976 13.1107 26.4996 13.3028 26.1319C13.8327 25.1084 14.6154 24.5762 15.6838 24.2344C15.706 23.4798 15.6713 22.8652 15.7481 22.088C15.9677 19.9997 16.8217 18.0288 18.1951 16.4404C20.1255 14.2333 22.5812 13.0799 25.4885 12.8868Z" fill="white"/>
</svg>
