<svg width="52" height="52" viewBox="0 0 52 52" fill="none" xmlns="http://www.w3.org/2000/svg">
<rect width="52" height="52" rx="10" fill="white" fill-opacity="0.05"/>
<g clip-path="url(#clip0_1_633)">
<path d="M19.4822 13H19.8987C20.0475 13.0886 20.2334 13.1922 20.3254 13.3413C20.5727 13.7419 20.8076 14.1656 21.0408 14.574L22.4291 17.0051L23.8782 19.5347C24.0708 19.8712 24.355 20.3305 24.4992 20.6722C24.7266 21.2109 23.7522 21.9787 23.4048 22.3208C23.733 22.6549 24.1522 23.0928 24.4984 23.3943C24.97 22.8417 25.7993 22.0719 26.3204 21.5408C26.7206 21.1329 27.5498 20.2691 27.9729 19.9228L30.6638 22.61C31.0231 22.9691 31.6456 23.5515 31.9541 23.9152C30.8209 25.0814 29.6329 26.2465 28.4805 27.3972C28.6923 27.6118 29.4654 28.4382 29.6763 28.5225C29.9255 28.5104 30.6199 27.3616 31.1559 27.4623C31.3579 27.5002 31.4736 27.5622 31.658 27.6652C32.2215 27.9804 32.7817 28.3044 33.3417 28.6248L36.5614 30.4677L37.9033 31.2354C38.3637 31.4974 38.7489 31.6227 39 32.1191V32.4906C38.7689 32.8832 38.445 33.6207 38.2303 34.0622L36.6773 37.249C36.4496 37.7161 36.2187 38.256 35.9536 38.6943C35.8594 38.8502 35.6715 38.9099 35.5417 39H35.1495C34.6322 38.6628 34.3356 38.3084 33.9 37.8722L32.5992 36.5697L27.9808 31.9544C27.214 31.1858 27.3283 30.8983 28.102 30.1606C28.2592 30.0107 28.4327 29.8369 28.5882 29.682C28.313 29.3518 27.6088 28.6914 27.2794 28.367C26.4977 28.533 26.0516 28.7115 25.2248 28.4251C25.487 28.9219 25.6508 29.4646 25.7073 30.0234C25.8299 31.2056 25.4657 32.3868 24.6988 33.2949C23.9248 34.2229 23.4781 33.6177 22.844 32.9989C22.3725 32.5387 21.8807 31.9818 21.3852 31.5611C21.1834 31.7907 20.7995 32.2104 20.5284 32.2661C19.831 32.4092 19.2755 31.6035 19.787 31.027C19.9126 30.8854 20.1773 30.6441 20.2481 30.5252C20.2886 30.1813 18.365 28.7695 18.1621 28.1869C18.0963 27.9977 18.1184 27.7898 18.2074 27.6121C18.4942 27.0397 19.4715 26.5447 20.0558 26.3563C21.2012 25.9868 22.388 26.1066 23.4548 26.6537C23.2364 25.8899 23.2793 25.3629 23.5334 24.6189C23.3288 24.3732 22.5638 23.6396 22.3172 23.4124C21.9514 23.7462 21.6356 24.1637 21.2231 24.4408C20.9437 24.6284 20.5777 24.5293 20.3478 24.3094C19.9108 23.8914 19.4856 23.4573 19.0577 23.0291L16.5758 20.545L14.4495 18.4212C14.0581 18.0303 13.25 17.2837 13 16.8607V16.4368C13.0905 16.3125 13.1791 16.1104 13.3227 16.0241C13.7211 15.7844 14.222 15.5719 14.6443 15.3666L17.9022 13.7798C18.2083 13.631 19.2403 13.1562 19.4822 13Z" fill="white"/>
<path d="M31.0932 17.6278C31.894 17.5373 32.6113 17.7704 33.2352 18.2779C34.4291 19.2492 34.6195 21.0578 33.6186 22.236C33.4413 22.4447 33.2345 22.6317 33.0554 22.845L32.6238 22.4121C31.4293 21.2409 30.259 20.0135 29.0573 18.8535C29.5683 18.1427 30.2495 17.7758 31.0932 17.6278Z" fill="white"/>
<path d="M16.8744 30.7811C17.818 30.6711 17.7657 31.3484 17.879 31.9929C17.9143 32.1854 17.9714 32.3734 18.0491 32.553C18.3752 33.2981 19.0455 33.8363 19.8435 33.9937C20.1185 34.0482 20.3926 34.0384 20.6622 34.1443C21.0975 34.3153 21.2237 34.7332 21.0421 35.1487C20.9469 35.3666 20.775 35.4754 20.5583 35.5578C20.0173 35.6736 19.1247 35.4345 18.6296 35.1971C17.6422 34.7257 16.883 33.8806 16.5196 32.8485C16.2927 32.1972 16.0199 31.0727 16.8744 30.7811Z" fill="white"/>
<path d="M13 31.3089C13.1422 31.0793 13.2713 30.8363 13.5453 30.7932C14.4303 30.6538 14.5582 31.311 14.5449 32.0154C14.5422 32.1559 14.6037 32.4832 14.6297 32.6206C14.9267 34.1614 15.8313 35.5178 17.1396 36.3841C17.964 36.9338 18.922 37.2679 19.9071 37.3319C20.2671 37.3552 20.72 37.3317 20.957 37.6483C21.1456 37.8976 21.179 38.2794 21.0013 38.5445C20.6892 38.986 20.0571 38.8959 19.595 38.8446C18.3234 38.7138 17.1085 38.2509 16.0722 37.5025C14.5755 36.4195 13.4978 34.8081 13.1529 32.9896C13.1258 32.8467 13.0571 32.3998 13 32.2939V31.3089Z" fill="white"/>
</g>
<defs>
<clipPath id="clip0_1_633">
<rect width="26" height="26" fill="white" transform="translate(13 13)"/>
</clipPath>
</defs>
</svg>
