<svg width="52" height="52" viewBox="0 0 52 52" fill="none" xmlns="http://www.w3.org/2000/svg">
<rect width="52" height="52" rx="10" fill="white" fill-opacity="0.05"/>
<path d="M13 16.54L13.0102 16.5232C13.0778 16.4103 13.1336 16.2274 13.1945 16.0965C13.4291 15.5926 13.7953 15.2478 14.3412 15.1107C14.7697 15.0031 15.2808 15.0314 15.7299 15.0313L17.2557 15.0312L22.5337 15.0314L32.1937 15.032L35.3948 15.0309C35.9696 15.0309 36.5471 15.0293 37.1171 15.0381C37.9125 15.0505 38.5625 15.4616 38.8619 16.2048C38.9012 16.3026 38.9528 16.4738 39 16.5611V32.3645C38.7364 33.0222 38.5765 33.4679 37.8526 33.779C37.6739 33.8559 37.4833 33.9013 37.2891 33.9132C36.7631 33.9474 36.0731 33.9291 35.5345 33.9291L32.4948 33.9286L30.7897 33.9315C30.5522 33.9323 30.0758 33.9496 29.8617 33.9167L29.8603 35.7443C30.1568 35.7436 31.1885 35.7083 31.3887 35.8081C31.4857 35.9226 31.4943 36.1329 31.4929 36.2908C31.4916 36.4485 31.5087 36.7797 31.3987 36.9099C31.3492 36.9684 31.2116 36.9749 31.1427 36.9766C30.4448 36.9782 29.7434 36.9765 29.0456 36.9763L24.8417 36.9758L22.2292 36.977C21.9815 36.9775 20.7003 37.0175 20.5671 36.9055C20.4894 36.7049 20.5027 36.1271 20.5302 35.9056C20.5891 35.7871 20.7364 35.7534 20.8583 35.7475C21.2817 35.7269 21.7131 35.7567 22.1363 35.7463C22.1384 35.1479 22.1344 34.5333 22.1463 33.936L16.9981 33.9298C16.1767 33.9301 15.2807 33.9692 14.4806 33.8762C13.847 33.8025 13.3061 33.2529 13.1049 32.6772C13.0835 32.6162 13.0324 32.4689 13 32.423V16.54ZM14.6262 29.8539L29.5043 29.8587L34.7369 29.8586C35.5149 29.8587 36.626 29.8925 37.3701 29.8545L37.3745 20.8068C37.3744 19.4548 37.3501 18.0225 37.3797 16.6757L21.0701 16.6674L16.6188 16.668L15.4246 16.6711C15.1963 16.6724 14.8511 16.6883 14.6337 16.6547C14.5995 17.824 14.6263 19.1149 14.6267 20.291L14.6275 26.616C14.6275 27.6854 14.6412 28.7884 14.6262 29.8539ZM26.0128 32.4737C26.3364 32.4522 26.583 32.1754 26.5673 31.8515C26.5515 31.5277 26.2792 31.2761 25.9551 31.2861C25.7402 31.2927 25.5457 31.4148 25.4463 31.6054C25.3468 31.7959 25.358 32.0253 25.4755 32.2054C25.5929 32.3854 25.7984 32.488 26.0128 32.4737Z" fill="white"/>
</svg>
