<svg width="52" height="52" viewBox="0 0 52 52" fill="none" xmlns="http://www.w3.org/2000/svg">
<rect width="52" height="52" rx="10" fill="white" fill-opacity="0.05"/>
<g clip-path="url(#clip0_1_642)">
<path d="M24.9661 13H27.0094L27.0326 13.008C27.5481 13.1787 28.2704 12.9666 28.5689 13.5899C28.6879 13.8383 28.7299 14.1046 28.7871 14.3722L29.0488 15.6014C29.0909 15.7995 29.1521 16.1315 29.2143 16.3133C29.7024 16.5005 30.126 16.6883 30.6017 16.8831C30.9964 16.5811 31.4397 16.3249 31.8576 16.0555C32.1663 15.8564 32.4822 15.6143 32.8144 15.4607C32.95 15.398 33.0906 15.3403 33.2427 15.3584C34.039 15.4529 35.8142 17.4315 36.3263 18.0994C36.4875 18.3096 36.6718 18.5896 36.6385 18.8664C36.5846 19.3146 35.4063 20.8983 35.1115 21.4331C35.3674 21.94 35.4726 22.2627 35.6797 22.7732C36.2676 22.9757 37.0004 23.0462 37.6121 23.2101C37.9977 23.3133 38.5244 23.3372 38.7555 23.7424C38.9429 24.0972 38.8647 24.6877 39 25.0457V26.9795L38.9924 27.0015C38.8108 27.5472 39.0335 28.2647 38.4003 28.5767C38.0931 28.7282 37.7684 28.7587 37.4419 28.838C36.8868 28.9729 36.246 29.0682 35.7028 29.2186C35.5328 29.5494 35.2823 30.2013 35.1125 30.5904L36.0411 32.0189C36.2192 32.2946 36.4347 32.5761 36.5628 32.8789C36.6231 33.0214 36.6591 33.1626 36.6273 33.3166C36.4672 34.0916 34.4 36.0152 33.7025 36.465C33.5243 36.5799 33.3037 36.6868 33.0868 36.64C32.6522 36.5462 31.0903 35.426 30.5842 35.1291C30.2807 35.2463 29.4971 35.5634 29.2165 35.7001C29.1174 35.9978 29.0962 36.3149 29.0044 36.6003C28.8021 37.23 28.8323 38.4031 28.2271 38.7674C27.9519 38.9332 27.3222 38.868 27.0571 39H24.9725C24.6658 38.8631 24.093 38.9388 23.7599 38.7636C23.3492 38.5478 23.3027 38.0673 23.2187 37.6696L22.9582 36.4338C22.9103 36.2081 22.8523 35.8828 22.775 35.6731C22.3232 35.5324 21.8468 35.3153 21.4134 35.1239C20.873 35.4412 19.3935 36.5197 18.9253 36.6355C18.7072 36.6894 18.4991 36.5956 18.3164 36.4816C17.6363 36.057 15.5275 34.0905 15.3648 33.336C15.3323 33.185 15.3701 33.0389 15.4284 32.8988C15.5602 32.5817 15.7831 32.2887 15.9694 32.0002L16.8843 30.5781C16.6746 30.1863 16.4679 29.642 16.3273 29.2223C15.4903 28.9608 14.5226 28.8956 13.6829 28.6186C12.9168 28.3659 13.2328 27.5563 13 27.0576V24.9395C13.1403 24.6538 13.0635 24.0944 13.227 23.7791C13.4478 23.3533 13.909 23.3086 14.3236 23.2215L15.5471 22.963C15.7681 22.916 16.1077 22.8558 16.3118 22.778C16.4846 22.3161 16.675 21.861 16.8824 21.4136L15.9649 19.996C15.7688 19.6926 15.509 19.3639 15.3906 19.0217C15.3174 18.8102 15.3648 18.6158 15.4634 18.4204C15.8332 17.6873 17.8395 15.6227 18.5759 15.3958C18.7327 15.3475 18.865 15.3529 19.0207 15.4033C19.3114 15.4975 19.5732 15.6957 19.8272 15.8601C20.3515 16.1996 20.8747 16.5871 21.4274 16.876C21.9146 16.6596 22.2546 16.4958 22.77 16.3297C22.9761 15.7552 23.0452 14.9769 23.2103 14.3766C23.2881 14.0939 23.2983 13.8787 23.4239 13.5986C23.7142 12.9517 24.4538 13.1925 24.9661 13ZM26.1651 34.119C30.6457 34.0263 34.2042 30.3213 34.1161 25.8406C34.028 21.3599 30.3266 17.7977 25.8458 17.8812C21.3586 17.9649 17.7901 21.6728 17.8784 26.1599C17.9666 30.647 21.678 34.2117 26.1651 34.119Z" fill="white"/>
<path d="M25.5984 19.5119C29.1776 19.2917 32.2591 22.0114 32.4853 25.5902C32.7115 29.169 29.9969 32.255 26.4185 32.4872C22.8317 32.7199 19.7367 29.9975 19.51 26.4103C19.2833 22.823 22.0108 19.7326 25.5984 19.5119ZM23.5731 27.6252L24.6842 27.6238L25.1897 27.6313C25.1805 28.2525 25.0717 29.2367 25.9959 29.2398C26.2109 29.2412 26.4174 29.1557 26.5685 29.0027C26.8597 28.7089 26.8198 28.2131 26.8165 27.8283C26.8093 27.0007 26.8142 26.1735 26.8139 25.346C26.8123 24.6038 26.6038 23.9536 26.0587 23.4319C25.5972 22.9869 24.9756 22.7472 24.3348 22.767C24.2593 22.7688 24.1891 22.7713 24.1142 22.784C23.4371 22.8664 22.8911 23.1261 22.4619 23.6731C22.2325 23.9663 22.0745 24.3087 22.0002 24.6735C21.9129 25.0956 21.9331 25.6466 21.9379 26.0864C21.9466 26.889 21.9228 27.6938 21.9472 28.4948C21.9537 28.7089 22.0807 28.9445 22.2509 29.0734C22.4314 29.2085 22.659 29.2644 22.8815 29.2285C23.0955 29.1928 23.2856 29.0713 23.4076 28.892C23.6451 28.5459 23.5342 28.0314 23.5731 27.6252ZM29.427 29.2256C29.8779 29.0824 30.0526 28.7927 30.0565 28.3365C30.0695 26.7886 30.0692 25.2386 30.0573 23.6908C30.0525 23.0193 29.6878 22.6908 29.0095 22.7854C28.5914 22.954 28.447 23.2066 28.4439 23.6406C28.4324 25.2136 28.4321 26.7887 28.4443 28.3617C28.4471 28.7281 28.5712 29.0466 28.9413 29.1775C29.1195 29.242 29.2385 29.2554 29.427 29.2256Z" fill="white"/>
<path d="M24.2914 24.3812C25.3047 24.3432 25.1954 25.3143 25.1896 26.0045C24.9413 26.008 24.6931 26.0099 24.4448 26.0101C24.1499 26.0075 23.8549 26.007 23.5599 26.0085C23.5798 25.3236 23.3923 24.5442 24.2914 24.3812Z" fill="white"/>
</g>
<defs>
<clipPath id="clip0_1_642">
<rect width="26" height="26" fill="white" transform="translate(13 13)"/>
</clipPath>
</defs>
</svg>
