<svg width="203" height="24" viewBox="0 0 203 24" fill="none" xmlns="http://www.w3.org/2000/svg">
<path d="M197.399 0.101406L202.984 0.0729675L203 23.9115C201.16 23.8687 199.267 23.9024 197.427 23.9109L197.399 0.101406Z" fill="#0068FE"/>
<path d="M167.451 0.0772171L173.887 0.132119C175.263 2.09452 177.205 5.51383 178.522 7.64254C181.88 13.0344 185.204 18.4494 188.493 23.8874C186.306 23.9151 184.051 23.8714 181.858 23.858C178.05 17.8927 174.568 11.2533 170.589 5.09693C169.608 6.88452 168.602 8.65643 167.57 10.4123L164.765 15.0432C167.609 14.7805 170.408 14.8233 173.261 14.82L175.799 19.3003C171.847 19.5293 166.283 19.3506 162.21 19.349L159.552 23.8962L152.745 23.9053C157.61 15.9051 162.629 8.16271 167.451 0.0772171Z" fill="#0068FE"/>
<path d="M1.98763 2.16181C3.95971 0.128839 7.04232 -0.0858328 9.67415 0.0415955C15.3598 0.322591 21.2517 -0.390678 26.8815 0.346119C34.0073 1.27863 32.5447 10.0153 32.61 15.3487C32.6553 19.049 31.1877 22.602 27.4825 23.4914C25.4423 24.1664 12.7849 24.0037 9.99653 23.9083C7.41124 23.0555 3.39742 23.5227 1.79552 20.7735C-0.136264 17.4581 0.316385 7.41316 0.898044 3.65599C1.23042 2.84633 1.35568 2.78588 1.98763 2.16181ZM24.6626 4.41371C20.9637 4.38299 8.58893 3.4325 6.28823 5.62656C5.25736 6.60971 5.50445 9.7242 5.51914 11.0831C5.53444 12.5041 5.61691 13.9401 5.47383 15.3552C5.59691 16.2564 5.91711 18.6288 6.75118 18.9203C11.8646 20.4386 18.6177 19.5535 23.9741 19.5012C28.0067 19.462 27.2457 14.4348 27.286 11.5833C27.3351 8.11337 27.7827 6.38689 24.6626 4.41371Z" fill="#060D1C"/>
<path d="M106.815 0.0605621L115.038 0.0719892C116.5 1.36 123.623 7.47296 124.362 8.60969C127.189 6.09935 131.306 2.29806 134.213 0.0977949L141.822 0.0857097C137.483 3.94515 132.977 7.7484 128.695 11.6304L142.288 23.0421L142.869 23.6188C142.298 24.2752 138.934 23.8727 137.852 23.9272L135.099 23.8936C131.727 21.2836 127.641 17.1657 124.402 14.8524C121.243 17.8371 117.584 20.9513 114.314 23.8798C111.602 23.9181 108.89 23.9214 106.178 23.8897C110.895 19.76 115.843 15.6705 120.486 11.5216C118.779 10.7946 109.068 1.86906 106.815 0.0605621Z" fill="#060D1C"/>
<path d="M90.0955 0.863996C91.4462 0.805183 92.8891 0.833612 94.248 0.834919C94.278 8.20714 94.3748 15.9045 94.2424 23.2597L90.1333 23.2669C90.0187 19.6182 90.0955 15.9116 90.0821 12.2548C90.0683 8.48323 89.9274 4.62411 90.0955 0.863996Z" fill="#060D1C"/>
<path d="M89.3776 0.0883187L94.9296 0.0752563C94.9 8.02613 94.91 15.9773 94.9599 23.9282L89.388 23.8782C89.4267 15.9482 89.4232 8.01795 89.3776 0.0883187Z" fill="#03060F"/>
<path d="M1.98766 2.16181C3.95973 0.128839 7.04234 -0.0858328 9.67418 0.0415955C15.3599 0.322591 21.2517 -0.390678 26.8815 0.346119C34.0073 1.27863 32.5447 10.0153 32.61 15.3487C32.6553 19.049 31.1877 22.602 27.4825 23.4914C28.3141 22.2465 30.0878 22.14 31.044 20.1465C32.4345 17.4856 31.8497 14.3593 31.9668 11.4941C32.177 6.35976 32.1908 1.13421 25.845 0.871187C19.2831 0.599013 12.5019 0.771218 5.92058 0.782981C5.21365 0.784288 3.01915 1.88931 1.98766 2.16181Z" fill="#03060F"/>
<path d="M70.2135 0.075919L75.7602 0.0729675C75.7227 8.01894 75.7243 15.9649 75.7655 23.9109L70.515 23.924L57.0766 12.507C55.1701 10.875 51.7998 8.14963 50.1213 6.42837C51.9913 6.95181 67.5205 20.7964 70.6627 23.2653C72.1431 23.279 73.7328 23.3257 75.2035 23.2636C75.3732 16.144 75.3269 7.95294 75.2014 0.804541C73.9406 0.778729 71.3184 0.4974 70.4672 1.3247C70.1967 4.42023 70.8252 13.467 70.2754 15.3807L70.2135 0.075919Z" fill="#03060F"/>
<path d="M24.6626 4.41372C29.3871 3.62661 28.285 16.9337 26.5941 18.884C24.6448 21.1326 16.1227 19.9838 12.9838 20.2299C9.53512 20.4998 4.20273 20.4886 5.47382 15.3552C5.5969 16.2564 5.91709 18.6288 6.75116 18.9203C11.8646 20.4387 18.6177 19.5535 23.9741 19.5012C28.0067 19.462 27.2457 14.4348 27.286 11.5834C27.3351 8.11339 27.7827 6.3869 24.6626 4.41372Z" fill="#03060F"/>
<path d="M70.2135 0.075919L75.7602 0.0729675C75.7227 8.01894 75.7243 15.9649 75.7655 23.9109L70.515 23.924L57.0765 12.507C55.1701 10.875 51.7997 8.14963 50.1213 6.42837C49.8964 9.49122 49.9026 20.6487 50.1557 23.9423C48.3335 23.9276 46.4492 23.8818 44.634 23.9615L44.6262 0.0818021L50.1122 0.07558L69.9252 16.983L70.1617 16.9232C70.2813 16.2188 70.301 16.0907 70.2754 15.3807L70.2135 0.075919Z" fill="#060D1C"/>
<path d="M106.815 0.0605621L115.038 0.0719892C116.5 1.36 123.623 7.47296 124.362 8.60969C123.208 8.45906 116.553 2.14417 115.162 0.885248C113.371 0.666986 110.612 0.802589 108.734 0.842451C110.186 2.25397 120.271 10.6518 120.486 11.5216C118.779 10.7946 109.068 1.86906 106.815 0.0605621Z" fill="#03060F"/>
<path d="M0.898053 3.65599C0.316395 7.41317 -0.136254 17.4581 1.79553 20.7736C3.39743 23.5227 7.41125 23.0555 9.99654 23.9083C1.61934 24.4598 -0.413649 20.7271 0.0655477 12.5348C0.246418 9.44647 -0.419582 6.68388 0.898053 3.65599Z" fill="#03060F" fill-opacity="0.988235"/>
</svg>
