<svg width="46" height="46" viewBox="0 0 46 46" fill="none" xmlns="http://www.w3.org/2000/svg">
<rect width="46" height="46" rx="3" fill="white" fill-opacity="0.1"/>
<path fill-rule="evenodd" clip-rule="evenodd" d="M23.2793 35.9258C20.7278 35.9258 19.542 35.5517 17.4809 34.0553C16.1772 35.7388 12.0487 37.0544 11.8687 34.8035C11.8687 33.1137 11.4962 31.6859 11.074 30.1271C10.5712 28.2067 10 26.068 10 22.9691C10 15.568 16.0468 10 23.211 10C30.3815 10 35.9999 15.8423 35.9999 23.0377C36.0115 26.44 34.6786 29.7079 32.2937 32.1241C29.9088 34.5404 26.6668 35.9077 23.2793 35.9258ZM23.3849 16.3973C19.8959 16.2165 17.1767 18.6419 16.5745 22.4454C16.0778 25.5941 16.9594 29.4288 17.7106 29.6283C18.0707 29.7156 18.9771 28.9798 19.542 28.4124C20.4762 29.0606 21.564 29.4499 22.6958 29.541C24.4336 29.625 26.1349 29.0208 27.4339 27.8584C28.7329 26.6959 29.526 25.068 29.6427 23.3245C29.7107 21.5775 29.093 19.8734 27.9227 18.5791C26.7523 17.2847 25.1229 16.5035 23.3849 16.4035V16.3973Z" fill="white"/>
</svg>
