<svg width="164" height="30" viewBox="0 0 164 30" fill="none" xmlns="http://www.w3.org/2000/svg">
<g clip-path="url(#clip0_1_401)">
<path d="M57.097 4.98305C58.8103 4.95182 60.6062 4.97618 62.3263 4.9736L62.3302 25.007C60.563 25.0022 58.7957 25.0069 57.0284 25.021C56.9846 23.1064 57.0217 21.0554 57.0204 19.1299L57.0208 13.1415C55.2985 15.202 53.5076 17.3693 51.7352 19.3871C51.1847 18.8079 50.4381 17.8689 49.8974 17.2296L46.4472 13.159L46.4533 25.0081L41.0808 25.0175C41.172 18.4655 41.1313 11.54 41.079 4.9807C42.6851 4.97823 44.3509 4.91834 45.9479 4.99803C46.6502 5.03307 47.8023 6.78328 48.2713 7.3838L51.7402 11.8531C53.3146 9.69314 55.402 7.06819 57.097 4.98305Z" fill="#23262C"/>
<path d="M125.491 4.97172C127.29 4.98284 129.089 4.98275 130.888 4.97143C130.785 8.63394 130.893 12.5561 130.848 16.256C131.222 15.7149 131.613 15.1803 132.008 14.6525C134.405 11.4454 136.734 8.18145 139.148 4.98701C140.647 4.9496 142.285 4.97911 143.795 4.97647C143.682 11.4692 143.747 18.4951 143.799 25.0031L138.39 25.02C138.377 21.4047 138.29 17.2125 138.42 13.6383C135.676 17.3422 132.794 21.367 129.975 24.9963C128.659 25.0598 126.865 25.0104 125.501 25.0212L125.491 4.97172Z" fill="#23262C"/>
<path d="M103.12 4.96741C104.829 5.0131 106.702 4.97578 108.423 4.97431L108.426 12.4481C111.003 12.4085 113.7 12.4467 116.285 12.4464L116.273 4.97613L121.648 4.97729L121.642 20.0998C121.641 20.7841 121.728 24.5814 121.595 24.9742L121.418 25.0117C119.705 25.0053 117.991 25.0075 116.277 25.0183L116.276 17.1511L108.416 17.1534L108.425 25.0084C106.659 25.0018 104.894 25.0063 103.129 25.0219C103.055 22.7998 103.116 20.2091 103.116 17.9585L103.12 4.96741Z" fill="#23262C"/>
<path d="M72.4521 4.98419C74.0697 4.95523 75.7604 4.97627 77.3841 4.97264C77.715 5.61811 78.1179 6.68608 78.3976 7.37447L80.027 11.3656L85.6195 24.994C84.0676 25.0796 81.7614 25.0087 80.151 25.0097C79.7554 24.1447 79.3447 23.0416 78.9823 22.1456C78.5876 22.1784 78.023 22.1717 77.6146 22.1785L73.3755 22.182C72.6137 22.1826 71.5406 22.2127 70.8024 22.1432C70.4154 23.0913 70.0431 24.0557 69.6671 25.0088H64.2955C65.0435 22.894 66.2096 20.258 67.0749 18.1455L72.4521 4.98419ZM72.4573 17.9368L74.9932 17.9399L77.3568 17.9344C76.4867 15.9279 75.7237 13.7657 74.8889 11.7301C74.093 13.8045 73.2825 15.8734 72.4573 17.9368Z" fill="#23262C"/>
<path d="M87.4918 4.97492L100.343 4.97327L100.342 9.66912L92.881 9.67052C92.9443 12.2661 92.8866 15.1124 92.8866 17.7273L92.8898 25.008C91.0977 24.9992 89.3055 25.0046 87.5134 25.024C87.491 18.4333 87.6423 11.5334 87.4918 4.97492Z" fill="#23262C"/>
<path d="M18.1442 9.24301C19.0712 9.17288 20.672 9.20872 21.6525 9.19727C21.6155 12.8756 21.5397 17.3746 21.6713 21.0094C20.4413 20.9948 19.1733 21.0088 17.9405 21.0094L17.9478 19.6558L17.948 15.0582C17.1133 16.0874 16.1115 17.3087 15.2224 18.2827C14.6266 17.7204 13.0817 15.7997 12.4817 15.087C12.5225 17.0253 12.4927 19.0612 12.4952 21.0071L8.78914 21.009C8.7274 17.1357 8.77985 13.0807 8.7849 9.19929C9.89838 9.25384 11.1152 9.19711 12.2636 9.23942C12.6538 9.61017 14.7526 12.3888 15.2184 12.9893C16.0218 11.8636 17.2497 10.3048 18.1442 9.24301Z" fill="#23262C"/>
<path d="M0 25.3719L15.204 25.3726L19.2975 25.3727C21.2116 25.3717 22.9168 25.5219 24.3894 24.0562C25.5987 22.8527 25.7354 21.5248 25.7116 19.9297C25.7826 18.1782 25.4921 13.9304 25.8701 12.4584C26.0682 11.6543 26.4873 10.9176 27.0825 10.3274C28.0249 9.40667 29.1472 9.10994 30.4311 8.98425L30.4324 17.1259C30.4325 18.769 30.5454 21.4499 30.1909 22.9514C29.8113 24.6171 28.9594 26.1457 27.7318 27.3639C26.5529 28.509 25.0835 29.3301 23.473 29.7439C23.0498 29.8551 22.6432 29.896 22.2293 30H0V25.3719Z" fill="#23262C"/>
<path d="M7.87184 0H30.4253L30.4286 4.60898L15.5229 4.60361C13.7178 4.60251 11.9107 4.60566 10.1027 4.60431C8.47507 4.60308 7.2463 4.74284 6.04143 5.89445C4.49456 7.37297 4.66999 9.26587 4.66413 11.1954C4.61449 12.6504 4.83188 16.3878 4.50693 17.6012C4.3005 18.3678 3.89084 19.0683 3.31893 19.6325C2.34548 20.5805 1.30629 20.8259 0 20.9952V7.97369C0.98577 3.34671 3.22283 1.14732 7.87184 0Z" fill="#23262C"/>
<path d="M146.21 4.97058C152.064 5.05591 158.129 4.97807 164 4.97818V9.66716L157.776 9.66739C157.893 10.5834 157.82 13.7177 157.82 14.746L157.814 25.0129C156.029 25.0028 154.244 25.0056 152.459 25.0215C152.4 22.9879 152.45 20.7248 152.449 18.6767C152.436 15.6746 152.441 12.6725 152.464 9.67043C150.382 9.65929 148.301 9.66396 146.219 9.68461L146.21 4.97058Z" fill="#23262C"/>
</g>
<defs>
<clipPath id="clip0_1_401">
<rect width="164" height="30" fill="white"/>
</clipPath>
</defs>
</svg>
