<svg width="130" height="68" viewBox="0 0 130 68" fill="none" xmlns="http://www.w3.org/2000/svg">
<path d="M13.9965 24.7025L40.9927 24.7019L40.9844 48.393C38.3507 48.4927 35.0865 48.405 32.3982 48.4038C32.3461 45.6415 32.3876 42.7177 32.3871 39.9434L32.3811 31.4051C29.2406 31.3352 25.784 31.3751 22.6316 31.4063C22.6142 36.9892 22.7374 42.8588 22.6159 48.4026L14.03 48.4081C13.9678 47.5077 13.9962 46.3419 13.9962 45.4205L13.9965 40.464V24.7025Z" fill="#23262C"/>
<path d="M54.3578 24.1408C57.0866 24.0645 60.0747 24.1008 62.8003 24.2352C64.5248 24.3202 66.4826 24.5629 68.23 24.7111C70.8427 31.1531 70.6173 41.8923 68.1925 48.402C66.523 48.5149 64.8229 48.6015 63.1575 48.7608C56.8028 49.3689 50.5369 48.7045 44.1852 48.4011C44.2334 47.4933 44.4333 46.8378 44.5819 45.9836C44.8122 44.6608 45.1055 43.3571 45.3351 42.0399C45.743 42.1042 46.8925 42.1392 47.3553 42.166C48.6785 42.2513 50.0025 42.322 51.3273 42.3779C53.7172 42.5245 56.1137 42.5286 58.504 42.3903C59.5961 42.3197 60.683 42.1806 61.7741 42.0861C61.8953 41.2376 62.004 40.4118 62.1852 39.5732C58.5607 39.4793 54.7419 39.5813 51.093 39.5532C51.1286 37.5515 51.1011 35.4718 51.1023 33.4641C54.7761 33.4123 58.5563 33.4594 62.2423 33.455C62.1264 32.6152 61.9326 31.8183 61.8391 30.9604C61.485 30.9615 61.1004 30.9237 60.7487 30.8854C57.3231 30.5118 53.8629 30.4509 50.4233 30.6822C48.754 30.7945 47.0009 30.8425 45.332 31.0006C45.2663 30.4024 45.1013 29.8543 45.0036 29.2742C44.7472 27.7519 44.3499 26.2419 44.1773 24.7128C47.7262 24.4873 50.7742 24.1916 54.3578 24.1408Z" fill="#23262C"/>
<path d="M92.2612 24.7185C93.4281 24.664 94.7529 24.6934 95.9298 24.6942L102.173 24.7046C98.9933 28.2924 95.6122 32.0957 92.5274 35.755C93.0042 36.4961 94.1009 37.7626 94.6974 38.4873C96.0643 40.135 97.4218 41.7906 98.7699 43.4541L102.842 48.3962C99.3584 48.4564 95.7225 48.4054 92.2251 48.4036C92.0914 48.1909 91.8881 47.9416 91.7289 47.7414C89.5449 44.9971 87.4711 42.1255 85.2356 39.4252C84.2526 39.3756 83.2227 39.4011 82.237 39.4122C82.1775 42.3582 82.2384 45.4355 82.2197 48.4009C79.3843 48.4372 76.4673 48.4055 73.6252 48.4065C73.5684 45.4883 73.6038 42.4791 73.6038 39.5503L73.6125 24.7033L82.2324 24.7008C82.2304 27.3572 82.3119 30.6424 82.2083 33.2675L85.3533 33.278C85.6014 32.9271 85.9344 32.5195 86.2139 32.1894C88.2676 29.7611 90.1862 27.1195 92.2612 24.7185Z" fill="#23262C"/>
<path d="M108.201 24.5415C109.688 24.4142 112.483 24.5741 113.959 24.7131L113.961 31.9893L111.219 31.9764C109.35 31.9655 107.481 31.9711 105.612 31.9935C105.533 29.7057 105.602 27.0306 105.594 24.6992C106.389 24.6163 107.389 24.5864 108.201 24.5415Z" fill="#23262C"/>
<path d="M105.598 41.4945C108.321 41.5491 111.226 41.4995 113.963 41.5067C113.944 42.4379 114.1 47.956 113.87 48.3446C111.407 48.6688 108.074 48.5182 105.61 48.4001C105.569 46.1293 105.599 43.7714 105.598 41.4945Z" fill="#23262C"/>
</svg>
