<svg width="154" height="75" viewBox="0 0 154 75" fill="none" xmlns="http://www.w3.org/2000/svg">
<path d="M51.2399 23.5976C54.1398 23.4465 53.3835 23.434 54.8416 25.82C56.4271 28.4147 57.7741 31.3323 59.5171 33.8188C59.8198 34.2506 60.6623 34.1974 61.1485 34.2154C61.2543 36.2161 61.1494 37.8855 61.1535 39.8554C60.3148 39.7689 59.4699 39.7593 58.6295 39.8268C58.6626 38.8031 58.6124 37.6852 58.6379 36.619C56.9648 36.5304 55.1845 36.5625 53.5014 36.563C51.0822 36.5451 48.6628 36.5638 46.2442 36.6192C46.287 37.5867 46.2274 38.848 46.2267 39.8542C45.3899 39.7715 44.5474 39.7637 43.7093 39.8308C43.6627 39.0048 43.5023 35.261 43.7849 34.3485C43.8451 34.1542 44.8153 34.1247 45.1435 34.0989C45.8711 33.1587 46.8688 31.1943 47.5162 30.1193C48.7948 27.9965 49.9918 25.7322 51.2399 23.5976ZM48.5453 34.1426C49.8903 34.1617 51.2353 34.1703 52.5803 34.1685C53.4085 34.172 55.2016 34.2229 55.9484 34.1269L56.0313 34.0379C56.0195 33.812 55.8974 33.6064 55.7971 33.4081C55.5452 32.9104 52.628 27.6433 52.4589 27.5103C52.4247 27.4835 52.3822 27.4629 52.3427 27.4451C51.1244 29.1897 49.4744 32.2101 48.5453 34.1426Z" fill="#23262C"/>
<path d="M91.603 25.6278C93.2949 25.4435 95.353 25.749 96.7915 26.8057C99.1669 28.5515 99.5286 32.1452 97.7427 34.4471C96.4847 36.0692 95.1785 36.4166 93.1836 36.6624C93.0294 36.6893 92.8745 36.7116 92.7189 36.7291C91.4082 36.8707 89.193 36.3298 88.1846 35.4559C87.0093 34.4342 86.2912 33.1505 86.137 31.598C85.7919 28.1346 88.32 25.9553 91.603 25.6278ZM93.137 34.2055C95.0545 33.9133 96.232 32.5508 95.8718 30.5758C95.7064 29.7104 95.2026 28.9466 94.4717 28.4527C93.7378 27.9474 92.9339 27.9162 92.0745 28.0204C91.1195 28.1727 90.2457 28.6216 89.6629 29.4121C89.1937 30.0562 88.9997 30.8601 89.1245 31.6468C89.4381 33.5725 91.321 34.4873 93.137 34.2055Z" fill="#23262C"/>
<path d="M103.53 25.782C105.124 25.75 109.035 25.5095 110.391 26.4479C111.873 27.4735 111.35 29.0117 110.358 30.2597C112.306 31.4599 112.587 33.7675 111.276 35.6218C111.024 35.9799 110.485 36.1328 110.075 36.2728C107.273 36.8939 103.796 36.3181 101.074 36.632C101.128 33.9433 101.045 31.2303 101.076 28.5396C101.086 27.6829 101.081 26.8012 101.052 25.9455L103.53 25.782ZM103.714 32.0863L103.697 34.302C105.067 34.2842 106.565 34.2907 107.927 34.2214C108.403 34.1425 108.544 34.1175 108.999 33.9373C109.26 33.2873 109.499 32.3553 108.644 32.1276C107.714 31.88 106.055 31.9924 105.088 32.0154L103.714 32.0863ZM103.697 28.1999L103.703 29.9422C104.858 30.0517 106.525 30.1021 107.661 29.9272C107.873 29.8768 108.108 29.8261 108.314 29.7651C108.999 27.5561 106.546 28.26 105.243 28.17C105.024 28.1548 104.709 28.1858 104.479 28.1928L103.697 28.1999Z" fill="#23262C"/>
<path d="M35.0303 38.2953C35.4697 38.5612 37.8224 42.8511 38.2916 43.6334C39.3309 45.356 40.3546 47.0879 41.3625 48.8288C41.7605 49.5299 42.2775 50.3025 42.5227 51.0566C41.641 51.1721 39.4972 51.164 38.5739 51.13C37.498 49.8936 36.4662 47.6659 35.6217 46.254C35.4755 46.0097 35.1657 45.608 34.9797 45.3222C33.6659 47.0986 32.9392 49.3944 31.4934 51.0216C31.3523 51.1804 27.8875 51.4016 27.54 50.8415C27.6962 50.1065 28.592 48.7694 28.9746 48.0305C29.9786 46.0909 31.1052 44.2977 32.2327 42.4386C32.905 41.33 33.57 40.0851 34.2819 38.9818C34.347 38.881 34.9018 38.4082 35.0303 38.2953Z" fill="#23262C"/>
<path d="M124.587 40.8045C125.495 40.5154 126.289 40.6051 127.223 40.64L127.214 48.8159C127.213 49.273 127.289 51.1912 127.121 51.4414L126.971 51.4563C126.13 51.4428 125.288 51.4491 124.447 51.4751C124.451 49.3396 124.512 46.8692 124.424 44.7651C123.88 45.1445 123.394 45.7885 122.962 46.3087C121.534 48.0271 119.885 49.658 118.52 51.419C117.81 51.5162 116.872 51.4764 116.142 51.4587C116.092 50.3633 116.009 41.2167 116.32 40.6294C117.123 40.5997 118.021 40.6672 118.871 40.6452C118.914 42.8737 118.915 45.1027 118.876 47.3313C120.615 45.3571 122.831 42.5871 124.587 40.8045Z" fill="#23262C"/>
<path d="M111.382 40.6388C112.117 40.5803 112.739 40.6026 113.468 40.6346C113.597 43.9465 113.245 48.259 113.508 51.4673C112.582 51.4178 111.628 51.4181 110.699 51.4063C110.775 49.4087 110.685 46.8281 110.661 44.7824C109.673 45.6963 105.106 51.2644 104.776 51.4188C104.694 51.4573 104.513 51.4598 104.418 51.4747C103.776 51.4638 103.134 51.4662 102.493 51.4819C102.52 47.894 102.449 44.2834 102.513 40.6986L105.105 40.6786C105.1 41.3705 105.031 46.9693 105.155 47.155C106.056 46.9904 110.016 41.0361 111.346 40.6488L111.382 40.6388Z" fill="#23262C"/>
<path d="M83.9924 40.6508C84.7 40.5988 85.3587 40.6098 86.0655 40.6154C86.1001 44.2479 86.1167 47.8806 86.1144 51.5133C85.6843 51.4675 85.2083 51.464 84.7729 51.4509L83.4337 51.4913C83.3472 49.2851 83.4502 46.9355 83.4698 44.7238C82.7795 45.3303 82.114 46.1849 81.4891 46.8765L77.3955 51.4503C76.7361 51.5 75.8487 51.4561 75.1367 51.4866C75.1016 47.9626 75.0543 44.1986 75.2073 40.6941L76.3646 40.6491L77.7354 40.5945C77.7324 42.849 77.767 45.1033 77.8377 47.3566C78.3091 46.928 79.0483 45.8759 79.3318 45.6087C80.2657 44.728 83.1073 41.1543 83.9924 40.6508Z" fill="#23262C"/>
<path d="M114.58 25.9266C115.42 25.9006 116.26 25.898 117.1 25.9188C117.131 27.1598 117.132 28.4013 117.103 29.6424C119.122 29.7617 121.928 29.1088 123.538 30.4753C124.172 31.0126 124.461 31.9605 124.478 32.7698C124.505 34.1393 124.419 34.6895 123.504 35.6969C123.085 36.0385 122.506 36.3338 121.971 36.4089C119.533 36.751 116.907 36.4759 114.451 36.6138C114.385 35.4388 114.407 33.1426 114.413 31.9549C114.419 30.585 114.336 27.0607 114.58 25.9266ZM117.086 34.2067C117.993 34.2576 120.764 34.3781 121.443 33.9807C121.831 33.1851 121.967 32.8248 121.313 32.1299C119.858 31.9302 118.607 31.9314 117.146 31.9816L117.086 34.2067Z" fill="#23262C"/>
<path d="M88.9997 40.6185L91.554 40.6078C91.5104 41.9603 91.6548 43.4252 91.53 44.7826C93.164 44.8912 95.377 45.0213 96.9531 44.6799L96.9606 44.6507C97.2508 43.488 97.0516 41.997 97.1117 40.6916C97.9832 40.6505 98.8555 40.6254 99.7278 40.6161C99.6616 43.9277 99.7496 47.2696 99.7706 50.5836C99.7729 50.8864 99.7894 51.1618 99.7594 51.4666C98.9412 51.4354 97.908 51.4371 97.0989 51.5023C97.0741 50.1145 97.0704 48.7265 97.0884 47.3386C95.2491 47.3068 93.4099 47.2875 91.5698 47.2809C91.6247 48.6644 91.5525 50.0748 91.6067 51.4754C90.7367 51.4507 89.7561 51.4359 88.8944 51.4904C88.7929 50.0939 88.7365 41.8282 88.9997 40.6185Z" fill="#23262C"/>
<path d="M66.0288 40.7127C66.7003 40.6503 67.3769 40.6787 68.0495 40.704C68.6924 41.4257 69.6231 43.1794 70.1417 44.0848L73.162 49.3453C73.2654 49.5254 74.1644 51.2439 74.1628 51.2789C73.7206 51.5342 71.5069 51.4861 70.9107 51.4578C69.8246 49.4146 68.6839 47.5414 67.5982 45.5303C67.4286 45.2103 67.1888 44.8985 66.9753 44.603C65.9988 46.0681 65.2114 47.9106 64.2213 49.3973C63.7815 50.0576 63.5134 50.7786 63.0093 51.4469C61.9682 51.4582 60.927 51.4488 59.8864 51.4186C60.5127 50.0476 65.2761 41.3291 66.0288 40.7127Z" fill="#23262C"/>
<path d="M77.9136 25.918C78.4813 25.9011 79.328 25.7816 79.8709 25.9631C80.7237 26.2486 85.4279 35.2499 86.137 36.6231C85.1053 36.5533 84.0465 36.6363 82.9878 36.5752C82.3231 35.8897 80.08 31.8438 79.4664 30.7298C79.2634 30.3665 79.1182 30.1769 78.8708 29.8526C77.9316 31.2993 77.0383 32.7754 76.1931 34.2786C75.7961 34.9717 75.2502 35.8541 74.9526 36.5779C73.9083 36.6108 72.9719 36.5417 71.8904 36.6205C72.4484 35.2181 74.5223 31.7894 75.3254 30.3719C75.9668 29.2199 76.6293 28.0794 77.3113 26.9508C77.5113 26.6177 77.6925 26.2013 77.9136 25.918Z" fill="#23262C"/>
<path d="M13.7701 46.17C14.8996 45.9923 18.0341 46.9047 19.2922 47.0863C20.8586 47.3126 22.5702 47.7011 24.1097 48.082C24.9525 48.2904 26.7254 48.3766 27.3988 48.8434C27.4315 49.242 26.6918 50.3694 26.4555 50.8066C25.7536 51.2049 25.6176 51.1337 24.7932 51.1152C22.53 51.1092 20.2668 51.1158 18.0037 51.1351C16.7439 51.152 12.2574 51.2715 11.1924 50.9573C10.7248 50.3527 13.1217 46.767 13.7701 46.17Z" fill="#23262C"/>
<path d="M26.4471 24.1549C27.329 24.0606 28.2657 26.2556 28.6896 26.9847L32.9407 34.3729C33.3202 35.041 34.1564 36.0943 34.1173 36.8187C34.0789 37.5265 33.6707 38.9816 32.7613 38.9256C32.5155 38.7898 32.4895 38.7579 32.3114 38.5425C30.7666 36.8196 29.2166 34.9574 27.713 33.1897C26.9538 32.2972 24.4331 29.8061 24.0038 28.9695C24.1521 27.2238 25.3426 25.4602 26.4471 24.1549Z" fill="#23262C"/>
<path d="M20.2364 35.4315C20.6533 35.535 24.204 37.9185 24.6971 38.3776C26.2885 39.8593 29.3617 41.6526 30.6982 43.2459C30.3973 44.1459 30.2672 44.386 29.4887 44.9245C29.1433 44.8397 28.7681 44.6617 28.4374 44.519C26.1338 43.5017 23.821 42.6391 21.5723 41.4712C20.3942 40.8594 18.7148 40.4494 17.5837 39.7756C17.6205 39.615 17.6661 39.4564 17.7201 39.3007C18.0004 38.5081 19.0478 36.5127 19.5966 35.823C19.7028 35.6896 20.0708 35.5112 20.2364 35.4315Z" fill="#23262C"/>
<path d="M23.0553 30.0787C24.0213 30.0012 24.9837 31.5906 25.5927 32.295L30.2865 37.7303C30.8848 38.427 31.8905 39.7333 32.4962 40.2834C32.1193 40.8227 31.8889 41.8373 31.2121 41.9528C30.9215 41.9319 30.8007 41.7998 30.5718 41.6166C29.84 41.3208 21.4812 34.9785 20.9857 34.4034C20.8485 34.2441 20.8007 34.1695 20.8209 33.9534C20.9003 33.1049 22.4086 30.6371 23.0553 30.0787Z" fill="#23262C"/>
<path d="M17.0524 40.7673C18.5287 40.9473 21.4227 42.4382 22.8735 43.0541L26.1146 44.4472C27.2696 44.9351 28.0929 45.1414 29.0465 45.997C28.3034 47.9382 28.3955 47.6509 26.4793 47.5064C25.5743 47.3476 24.629 47.2125 23.7308 47.029C22.9303 46.8655 22.001 46.5419 21.2191 46.4154C20.0915 46.2329 15.3106 45.432 14.5497 44.9431C14.5248 44.8351 14.5259 44.711 14.5785 44.615C15.1477 43.5735 15.9394 41.3122 17.0524 40.7673Z" fill="#23262C"/>
<path d="M125.71 25.9165C126.569 25.897 127.48 25.91 128.343 25.9088C128.24 26.8635 128.298 28.7244 128.306 29.7451L128.357 36.5367C127.404 36.5422 126.654 36.5358 125.697 36.6055C125.812 33.2742 125.701 29.297 125.71 25.9165Z" fill="#23262C"/>
<path d="M131.15 25.9021C134.907 25.933 139.322 25.7653 143.019 25.9564C142.711 26.5303 142.598 27.043 142.207 27.6289L141.768 28.2496C141.572 28.2747 141.34 28.3017 141.144 28.3016C138.406 28.2987 135.669 28.2857 132.931 28.3153C132.62 28.3187 132.278 28.3221 131.974 28.2919C131.706 28.2653 131.263 28.2595 131.072 28.0741C130.838 27.5436 131.002 26.459 131.15 25.9021Z" fill="#23262C"/>
<path d="M62.9372 25.9114C66.7238 25.8517 70.942 25.8676 74.7244 25.9213C74.5302 26.8335 74.4598 27.1671 73.8854 27.8824C73.7412 28.0969 73.5711 28.282 73.2884 28.2933C72.1063 28.3377 70.9175 28.2798 69.7343 28.2713C67.403 28.2545 65.0837 28.2211 62.7534 28.1498C62.7823 27.6855 62.8249 26.2797 62.9372 25.9114Z" fill="#23262C"/>
<path d="M62.8639 30.0439C65.759 29.9391 69.5342 30.0066 72.4533 30.0635C72.109 30.7956 72.0101 31.1313 71.5237 31.7947C71.3913 32.0437 71.2228 32.2784 70.9172 32.3071C69.9762 32.3956 69.011 32.3329 68.0638 32.3319C66.319 32.33 64.5762 32.2987 62.832 32.3726C62.8055 31.9453 62.7729 30.4376 62.8639 30.0439Z" fill="#23262C"/>
<path d="M131.144 30.0325C134.348 30.0126 137.552 30.0219 140.756 30.0604C140.293 30.597 140.253 31.0997 139.854 31.7206C139.629 32.0809 139.538 32.2961 139.085 32.3209C136.492 32.463 133.704 32.1486 131.129 32.3806C131.115 31.7578 131.059 30.6038 131.144 30.0325Z" fill="#23262C"/>
<path d="M62.8731 34.1509C64.6992 34.2001 68.3431 34.2504 70.1092 34.1189C69.8134 34.741 69.4973 35.2994 69.1615 35.8984L68.8545 36.5079C66.9322 36.534 64.6867 36.4805 62.8016 36.6C62.7966 35.7917 62.8409 34.9602 62.8731 34.1509Z" fill="#23262C"/>
<path d="M131.154 34.1408C132.23 34.2157 133.656 34.1664 134.756 34.1739C135.789 34.181 137.211 34.2224 138.191 34.1143C138.013 34.9135 137.898 35.1184 137.468 35.8031C137.307 36.0581 137.129 36.3076 136.957 36.5556C135.091 36.636 132.819 36.4206 131.117 36.5271C131.117 35.7314 131.13 34.936 131.154 34.1408Z" fill="#23262C"/>
</svg>
