<svg width="149" height="30" viewBox="0 0 149 30" fill="none" xmlns="http://www.w3.org/2000/svg">
<g clip-path="url(#clip0_1_415)">
<path d="M0 0H149V30H0V0Z" fill="#23262C"/>
<path d="M90.4055 8.45196C92.2076 8.17331 94.6121 8.58954 95.9791 9.85834C97.0843 10.8845 97.7485 12.2022 97.8016 13.7305C97.8773 15.9142 97.982 17.8989 96.4622 19.6482C95.499 20.7493 94.1479 21.4209 92.7008 21.5176C92.6412 21.5257 92.5815 21.533 92.5219 21.5391C88.906 21.9291 85.595 20.483 85.1461 16.4567C84.6957 12.4253 85.9347 8.90469 90.4055 8.45196Z" fill="#FEFEFE"/>
<path d="M90.842 10.9583C92.9919 10.8939 94.6674 11.5105 94.8471 14.0219C95.0268 16.5229 94.8282 18.4489 92.0781 19.0491C90.3102 19.0985 88.4222 18.6308 88.1494 16.464C87.8373 13.9841 87.9391 11.5011 90.842 10.9583Z" fill="#23262C"/>
<path d="M71.3906 8.61111C71.5367 8.6955 74.6237 17.1902 75.01 18.1237C75.408 17.2029 75.8605 15.8542 76.2163 14.8909L78.5262 8.6106L82.7939 8.6171L82.7918 21.3565L79.9747 21.358C79.9755 18.2517 80.0577 14.7132 79.9522 11.6419L79.4807 12.9124C78.4222 15.6357 77.2675 18.6129 76.2977 21.359L73.3767 21.3582C72.1208 18.3208 70.8863 14.8425 69.7079 11.741C69.6218 14.8027 69.6999 18.2637 69.6991 21.3575L67.045 21.3584L67.048 8.6151L71.3906 8.61111Z" fill="#FEFEFE"/>
<path d="M57.744 8.37743C59.2876 8.10913 61.5871 8.46078 62.7258 9.66861C64.4403 11.4874 64.1654 14.0112 64.1633 16.3493L64.1548 21.3572L61.3442 21.3564L61.3428 20.0917C59.8433 21.6494 57.292 21.9941 55.2801 21.3513C54.1547 20.9918 53.4467 20.2237 52.9432 19.1616C52.5383 17.7 52.5787 16.2975 53.6922 15.1676C55.5785 13.2537 58.8332 13.6475 61.2815 13.6574C61.119 11.2135 59.8177 10.2817 57.4209 11.042C56.7395 11.2581 56.2011 12.0931 55.9528 12.7574C55.1183 12.694 53.9957 12.4761 53.1706 12.3174C53.7722 9.85704 55.3134 8.6682 57.744 8.37743Z" fill="#FEFEFE"/>
<path d="M59.9165 15.7715C60.3151 15.7427 60.8831 15.7488 61.2955 15.7396C61.2153 18.3567 59.6927 19.1934 57.3143 19.1165C56.4599 19.011 55.7294 18.4475 55.6926 17.5214C55.6781 17.1546 55.812 16.7977 56.0631 16.5336C56.861 15.6791 58.767 15.808 59.9165 15.7715Z" fill="#23262C"/>
<path d="M118.665 8.45307C120.448 8.18669 122.751 8.68686 124.03 10.0533C125.645 11.7782 125.669 13.6271 125.653 15.8512L116.245 15.8546C116.246 16.1096 116.267 16.5332 116.323 16.7799C116.499 17.5651 116.976 18.2464 117.648 18.6732C119.447 19.8196 121.675 19.069 122.774 17.2887L123.665 17.4384L125.443 17.7773C123.946 21.8937 118.554 22.6775 115.328 20.2709C112.697 18.3084 112.646 12.8825 114.622 10.4555C115.676 9.16028 117.033 8.61334 118.665 8.45307Z" fill="#FEFEFE"/>
<path d="M118.733 10.8768C120.86 10.5194 122.22 11.3701 122.753 13.4564C122.026 13.4943 121.044 13.4659 120.299 13.4672L116.222 13.4699C116.59 11.961 117.196 11.2187 118.733 10.8768Z" fill="#23262C"/>
<path d="M101.249 8.61658L110.969 8.61783L110.966 21.3563L107.97 21.3566L107.971 11.5825C107.976 11.5332 107.938 11.4272 107.923 11.3744C107.568 11.2374 104.554 11.3027 103.99 11.3065C103.989 13.2542 103.97 15.1904 103.864 17.1315C103.642 21.2209 102.102 21.3771 98.6441 21.3567L98.6448 18.6891C99.9915 18.7085 100.862 18.7171 101.065 17.0764C101.213 15.8852 101.203 14.7056 101.212 13.507L101.249 8.61658Z" fill="#FEFEFE"/>
<path d="M44.1074 8.45172C47.4945 8.08846 49.7922 9.33443 51.0131 12.565C50.0397 12.7485 49.0433 12.9254 48.0784 13.1425C47.3939 11.4824 45.9892 10.5893 44.1966 10.9798C43.4159 11.1545 42.7364 11.6392 42.3096 12.3258C41.674 13.3354 41.6121 15.4647 41.8776 16.6052C42.5572 19.5242 46.2841 19.9506 47.816 17.4503L48.0551 16.883C49.0413 17.0158 50.0284 17.1409 51.0164 17.2586C50.8226 18.0592 50.4619 18.8082 49.9589 19.4552C47.9241 22.0435 43.3107 22.2975 40.8572 20.2983C39.7349 19.3828 39.0178 18.0511 38.8645 16.5974C38.4361 12.4897 39.5054 8.94125 44.1074 8.45172Z" fill="#FEFEFE"/>
<path d="M126.371 8.61672L137.801 8.61658L137.8 11.3084L133.582 11.3067V17.032L133.581 21.3565L130.585 21.3564L130.586 11.3084L126.371 11.3076V8.61672Z" fill="#FEFEFE"/>
<path d="M18.183 13.0575C18.7307 13.0111 19.1751 13.7011 19.554 14.0521C19.8326 14.3102 20.4703 14.8933 20.4737 15.2826C20.1858 15.8817 14.4947 21.5714 13.6782 22.3133C13.6433 22.3185 13.6104 22.3198 13.5753 22.318C13.0375 22.2906 12.0844 21.1356 11.7137 20.721C11.5439 20.5309 11.3794 20.3223 11.3948 20.0524C11.4129 19.7336 17.4962 13.6657 18.183 13.0575Z" fill="#FEFEFE"/>
<path d="M13.2625 8.11402C13.4819 8.11373 13.6691 8.12119 13.8264 8.28626C14.4043 8.89291 17.4664 11.6365 17.4951 12.2813C17.3216 12.7992 16.0226 13.977 15.5631 14.4287C15.3504 14.4288 15.1703 14.4161 15.0155 14.2556C14.4377 13.6566 11.3784 10.8694 11.323 10.2566C11.5058 9.69257 12.7792 8.56343 13.2625 8.11402Z" fill="#FEFEFE"/>
</g>
<defs>
<clipPath id="clip0_1_415">
<rect width="149" height="30" fill="white"/>
</clipPath>
</defs>
</svg>
