<svg width="33" height="33" viewBox="0 0 33 33" fill="none" xmlns="http://www.w3.org/2000/svg">
<path d="M15.9457 0.528957C18.5151 0.424131 20.8752 1.14956 22.8966 2.75299C25.0199 4.43964 26.3873 6.89979 26.6988 9.59351C26.8042 10.5149 26.7821 11.4008 26.5783 12.3075C25.4808 17.1883 20.0388 24.0282 16.8363 28.0597C16.7173 28.1967 16.6465 28.2412 16.5012 28.3438C16.165 28.1346 15.8314 27.6536 15.5786 27.3346C15.1143 26.7494 14.6542 26.1611 14.1983 25.5694C11.5322 22.1045 6.55614 15.4578 6.24561 11.167C6.05979 8.59938 7.11083 5.91688 8.78429 3.99121C10.6136 1.88623 13.1897 0.721057 15.9457 0.528957ZM16.9676 16.1311C19.9289 15.8704 22.1169 13.2562 21.8518 10.2952C21.5867 7.33427 18.9692 5.15024 16.0086 5.41978C13.0543 5.68871 10.8759 8.29945 11.1405 11.2542C11.405 14.2089 14.0125 16.3912 16.9676 16.1311Z" fill="#0068FE"/>
<path d="M20.8972 24.5454C22.7557 24.6471 30.3283 25.9704 29.3739 28.9134C28.3916 30.9785 23.7362 31.8995 21.6559 32.1639C17.2278 32.7265 12.4965 32.6225 8.15571 31.5311C6.88972 31.2128 5.51603 30.7035 4.46383 29.9297C2.78285 28.6828 3.57228 27.2228 5.1248 26.4008C7.18653 25.3091 9.5508 24.8539 11.8427 24.5673C12.141 24.5224 12.1554 24.6153 12.3388 24.8206C12.8309 25.3712 13.3418 26.3034 13.8696 26.7865C13.0289 26.9319 12.0523 27.1125 11.2979 27.5156C11.0517 27.6472 10.7417 27.8461 10.6615 28.1286C10.6193 28.2768 10.6557 28.4237 10.7339 28.5531C11.0513 29.0791 11.9748 29.3343 12.5292 29.4758C14.8147 30.0592 19.7453 30.1884 21.785 28.9683C22.0089 28.8344 22.2745 28.6367 22.3363 28.3682C22.3701 28.221 22.3326 28.0836 22.2492 27.96C21.7463 27.2145 19.9753 26.9521 19.135 26.7943C19.346 26.585 19.533 26.3078 19.7171 26.0738C20.1087 25.5758 20.488 25.0244 20.8972 24.5454Z" fill="#0068FE"/>
</svg>
