<svg width="33" height="33" viewBox="0 0 33 33" fill="none" xmlns="http://www.w3.org/2000/svg">
<path d="M5.36817 4.13606C6.16881 4.10496 6.99226 4.12133 7.79474 4.12281C11.0786 4.1289 14.3627 4.1162 17.6465 4.124C19.4093 4.12819 19.245 5.37974 19.244 6.65678L19.2422 9.21151L19.2441 13.8815C19.2443 14.7167 19.265 15.6538 19.2338 16.4829C20.1563 16.518 21.0963 16.4825 22.0192 16.5041C23.3468 16.5351 24.4657 17.4378 24.6945 18.7519C24.7896 19.2983 24.755 20.2738 24.7536 20.8669L24.7473 23.7446C24.7458 24.4215 24.6471 25.1773 25.1339 25.697C25.3864 25.9618 25.7351 26.1132 26.1009 26.1171C26.8111 26.1285 27.4086 25.5931 27.4753 24.8911C27.5106 24.5202 27.5019 24.1685 27.5005 23.7968L27.4945 21.9827L27.4987 15.1454C26.6982 15.165 25.8755 15.1446 25.0757 15.1485C23.0835 15.1583 23.3679 13.6513 23.37 12.2409C23.3786 11.1017 23.3766 9.96249 23.3639 8.82334C22.6589 8.05735 21.8126 7.3066 21.0932 6.53368C21.247 6.40297 21.5633 6.05524 21.7167 5.89956C22.1417 5.46511 22.5736 5.0374 23.0121 4.61659C23.2023 4.74082 23.5761 5.13227 23.7544 5.31042L24.9259 6.48092L29.5586 11.113C29.6985 11.2536 30.1081 11.684 30.1499 11.8561C30.3268 12.5829 30.252 13.9182 30.2498 14.6791L30.2505 21.6902L30.2508 23.713C30.2499 25.2554 30.262 26.3572 29.132 27.5692C27.568 29.2465 24.9546 29.322 23.2916 27.7467C22.757 27.25 22.3677 26.6172 22.1653 25.9161C21.9672 25.2081 22.0014 24.5141 21.9942 23.7897C21.9795 22.2884 22.0248 20.7756 21.9851 19.2758C21.5443 19.2909 21.0526 19.2679 20.6057 19.2703C20.1728 19.2727 19.6733 19.297 19.2519 19.2695C19.1909 21.4635 19.2424 23.8869 19.2427 26.0987L20.6219 26.12L20.6265 28.8801C18.4107 28.9191 16.1131 28.8858 13.8877 28.886L2.73642 28.8812C2.78762 28.1621 2.74786 26.8698 2.74998 26.1142C3.19159 26.1234 3.66919 26.1115 4.11582 26.113C4.16071 24.4227 4.12655 22.5919 4.12671 20.8937L4.12674 11.2366L4.1241 7.45836C4.12352 6.79839 4.1077 6.12766 4.13738 5.46859C4.17225 4.69309 4.61484 4.25855 5.36817 4.13606ZM6.86416 15.1012C7.80972 15.1392 8.7471 15.1099 9.68959 15.1223C11.9424 15.1516 14.2496 15.0811 16.4968 15.1267L16.5 6.90209L10.0004 6.89288L7.96483 6.89732C7.68478 6.8989 7.13751 6.92095 6.87618 6.89304C6.82871 9.61193 6.9233 12.3972 6.86416 15.1012Z" fill="#0068FE"/>
</svg>
