<svg width="33" height="33" viewBox="0 0 33 33" fill="none" xmlns="http://www.w3.org/2000/svg">
<g clip-path="url(#clip0_1_184)">
<path d="M15.1878 0H17.7812L17.8107 0.0100997C18.465 0.22687 19.3816 -0.0424111 19.7606 0.748729C19.9116 1.06403 19.9649 1.40196 20.0375 1.7416L20.3696 3.3018C20.423 3.5532 20.5007 3.97457 20.5797 4.20534C21.1992 4.44298 21.7368 4.68129 22.3406 4.92854C22.8416 4.54527 23.4043 4.2201 23.9346 3.87811C24.3265 3.62546 24.7274 3.31811 25.1491 3.12315C25.3212 3.04359 25.4996 2.97042 25.6927 2.99334C26.7033 3.11326 28.9565 5.62457 29.6064 6.47225C29.8111 6.73909 30.045 7.09452 30.0027 7.44582C29.9344 8.01465 28.4387 10.0248 28.0646 10.7035C28.3893 11.3469 28.523 11.7564 28.7858 12.4044C29.532 12.6615 30.462 12.751 31.2385 12.9589C31.7278 13.09 32.3964 13.1202 32.6897 13.6345C32.9275 14.0849 32.8282 14.8344 33 15.2888V17.7432L32.9903 17.7712C32.7599 18.4638 33.0425 19.3744 32.2388 19.7704C31.8489 19.9627 31.4368 20.0014 31.0224 20.1021C30.3179 20.2733 29.5045 20.3942 28.8151 20.5851C28.5993 21.005 28.2814 21.8324 28.0659 22.3263L29.2444 24.1394C29.4706 24.4893 29.7441 24.8466 29.9066 25.2309C29.9832 25.4118 30.0289 25.591 29.9885 25.7865C29.7853 26.7702 27.1615 29.2116 26.2762 29.7825C26.0501 29.9284 25.7701 30.064 25.4948 30.0046C24.9432 29.8856 22.9607 28.4637 22.3184 28.087C21.9332 28.2357 20.9386 28.6382 20.5824 28.8116C20.4566 29.1895 20.4298 29.592 20.3133 29.9543C20.0565 30.7535 20.0949 32.2424 19.3267 32.7048C18.9774 32.9152 18.1782 32.8324 17.8418 33H15.1958C14.8066 32.8263 14.0796 32.9223 13.6568 32.7C13.1355 32.426 13.0765 31.8162 12.9698 31.3114L12.6393 29.7429C12.5785 29.4564 12.5049 29.0436 12.4067 28.7775C11.8332 28.5988 11.2287 28.3232 10.6786 28.0804C9.99265 28.483 8.11481 29.8519 7.52062 29.9989C7.24369 30.0673 6.97956 29.9483 6.74779 29.8036C5.88451 29.2647 3.20803 26.7687 3.00152 25.8111C2.96019 25.6194 3.00824 25.434 3.08219 25.2561C3.2495 24.8536 3.53235 24.4818 3.7688 24.1156L4.93008 22.3106C4.66386 21.8134 4.40157 21.1225 4.22307 20.5899C3.16078 20.2579 1.93253 20.1752 0.866766 19.8237C-0.105544 19.5029 0.295493 18.4753 0 17.8423V15.154C0.178129 14.7914 0.0806022 14.0814 0.288126 13.6812C0.568367 13.1407 1.15376 13.084 1.68001 12.9734L3.23281 12.6453C3.5134 12.5857 3.94434 12.5093 4.20344 12.4106C4.42277 11.8243 4.66438 11.2466 4.9277 10.6788L3.76313 8.87948C3.51427 8.49441 3.18451 8.0773 3.03418 7.64288C2.94129 7.37444 3.00146 7.12774 3.12657 6.87973C3.59597 5.94922 6.14248 3.32881 7.07708 3.04085C7.27608 2.97953 7.44398 2.98641 7.64159 3.0504C8.01062 3.16988 8.34294 3.42146 8.66524 3.63016C9.33072 4.06103 9.99481 4.55287 10.6963 4.91955C11.3147 4.64481 11.7462 4.43692 12.4003 4.22616C12.662 3.49697 12.7497 2.50909 12.9592 1.74723C13.0579 1.38847 13.0709 1.1153 13.2304 0.75978C13.5988 -0.0613287 14.5375 0.244275 15.1878 0ZM16.7095 26.8048C22.3965 26.6873 26.913 21.9848 26.8012 16.2977C26.6894 10.6106 21.9914 6.08934 16.3043 6.19543C10.609 6.30165 6.07977 11.0078 6.19175 16.703C6.30374 22.3982 11.0144 26.9226 16.7095 26.8048Z" fill="#0068FE"/>
<path d="M15.9903 8.26487C20.5331 7.98537 24.4442 11.4373 24.7313 15.9796C25.0184 20.522 21.573 24.4388 17.0312 24.7335C12.4786 25.0289 8.55045 21.5736 8.26267 17.0205C7.97488 12.4675 11.4367 8.54504 15.9903 8.26487ZM13.4197 18.5626L14.8299 18.5608L15.4715 18.5702C15.4599 19.3587 15.3217 20.6079 16.4947 20.6118C16.7677 20.6136 17.0297 20.5051 17.2216 20.3109C17.5912 19.938 17.5405 19.3087 17.5363 18.8203C17.5272 17.77 17.5334 16.7201 17.533 15.6698C17.5309 14.7277 17.2663 13.9024 16.5745 13.2403C15.9888 12.6755 15.1998 12.3712 14.3864 12.3964C14.2906 12.3986 14.2015 12.4018 14.1065 12.418C13.2471 12.5225 12.5541 12.8522 12.0093 13.5464C11.7182 13.9185 11.5176 14.3532 11.4234 14.8161C11.3126 15.3518 11.3381 16.0512 11.3442 16.6095C11.3553 17.6282 11.3251 18.6497 11.356 19.6663C11.3642 19.938 11.5255 20.2371 11.7415 20.4006C11.9706 20.5721 12.2594 20.6431 12.5419 20.5975C12.8134 20.5522 13.0547 20.3979 13.2097 20.1704C13.511 19.7311 13.3703 19.0781 13.4197 18.5626ZM20.8497 20.5938C21.422 20.4121 21.6437 20.0443 21.6486 19.4653C21.6651 17.5007 21.6647 15.5334 21.6497 13.5689C21.6435 12.7166 21.1807 12.2997 20.3197 12.4197C19.789 12.6337 19.6058 12.9543 19.6018 13.5051C19.5873 15.5017 19.5869 17.5008 19.6023 19.4973C19.6059 19.9624 19.7634 20.3666 20.2331 20.5328C20.4593 20.6146 20.6103 20.6316 20.8497 20.5938Z" fill="#0068FE"/>
<path d="M14.3314 14.4452C15.6174 14.397 15.4787 15.6296 15.4714 16.5056C15.1563 16.51 14.8412 16.5124 14.5261 16.5127C14.1517 16.5094 13.7773 16.5087 13.4029 16.5107C13.4282 15.6413 13.1902 14.6521 14.3314 14.4452Z" fill="#0068FE"/>
</g>
<defs>
<clipPath id="clip0_1_184">
<rect width="33" height="33" fill="white"/>
</clipPath>
</defs>
</svg>
