<svg width="33" height="33" viewBox="0 0 33 33" fill="none" xmlns="http://www.w3.org/2000/svg">
<path d="M15.3761 2.1123C15.4079 2.12222 15.4502 2.12605 15.4537 2.16823C15.4863 2.56134 15.4714 3.14267 15.4704 3.52958L15.4699 12.0866L15.4689 14.993C15.4687 17.0953 15.3068 16.6232 16.5554 18.3232L18.3267 20.7338L24.1792 28.6986C23.738 29.0197 23.1274 29.3558 22.6339 29.594C19.0799 31.3096 15.4217 31.3423 11.7389 30.0778C9.90161 29.3754 8.48081 28.5803 6.98005 27.2932C4.15987 24.9079 2.40489 21.4984 2.10248 17.8172C1.77179 13.9179 3.01763 10.0486 5.5614 7.07476C8.04684 4.18633 11.5765 2.40165 15.3761 2.1123Z" fill="#0068FE"/>
<path d="M17.5464 2.08838C17.7168 2.12312 17.9847 2.14055 18.1713 2.16446C18.5849 2.2153 18.9964 2.28214 19.4049 2.36484C21.6466 2.82782 23.746 3.81739 25.5299 5.25183C28.0201 7.25019 29.7776 10.0177 30.5273 13.1214C30.7326 13.9753 30.8043 14.6052 30.9006 15.4677C30.4268 15.496 29.793 15.4793 29.3092 15.4795L26.4966 15.4798L17.5277 15.4796C17.5659 14.4171 17.5325 13.13 17.5325 12.0538L17.5323 5.36471C17.5322 4.34574 17.4979 3.08357 17.5464 2.08838Z" fill="#0068FE"/>
<path d="M18.6164 17.5444C20.4295 17.4795 22.5479 17.5319 24.3872 17.5297C26.4947 17.5273 28.801 17.4837 30.8954 17.5417C30.6183 20.4229 29.8901 22.4836 28.2461 24.8804C27.4806 25.9305 26.8164 26.6311 25.8468 27.4834C23.4519 24.1851 20.9744 20.9204 18.6034 17.6071L18.6164 17.5444Z" fill="#0068FE"/>
</svg>
