<svg width="30" height="30" viewBox="0 0 30 30" fill="none" xmlns="http://www.w3.org/2000/svg">
<path d="M4.88014 3.76007C5.60799 3.7318 6.35659 3.74668 7.08611 3.74803C10.0714 3.75357 13.057 3.74203 16.0422 3.74912C17.6448 3.75292 17.4954 4.8907 17.4946 6.05164L17.4929 8.37413L17.4946 12.6195C17.4948 13.3789 17.5136 14.2307 17.4852 14.9844C18.3239 15.0163 19.1784 14.9841 20.0174 15.0037C21.2243 15.032 22.2416 15.8525 22.4495 17.0472C22.536 17.5439 22.5045 18.4307 22.5033 18.9699L22.4975 21.586C22.4962 22.2013 22.4065 22.8884 22.849 23.3609C23.0785 23.6016 23.3956 23.7393 23.7281 23.7428C24.3737 23.7532 24.9169 23.2665 24.9776 22.6283C25.0096 22.2911 25.0017 21.9714 25.0004 21.6335L24.995 19.9843L24.9988 13.7685C24.2711 13.7864 23.5232 13.7679 22.7961 13.7714C20.985 13.7803 21.2435 12.4103 21.2454 11.1281C21.2533 10.0925 21.2514 9.05683 21.2399 8.02124C20.599 7.32489 19.8297 6.64239 19.1756 5.93973C19.3154 5.8209 19.603 5.50479 19.7424 5.36326C20.1288 4.9683 20.5215 4.57948 20.9201 4.19692C21.093 4.30986 21.4328 4.66573 21.5949 4.82768L22.6599 5.89177L26.8715 10.1028C26.9986 10.2306 27.3709 10.6218 27.409 10.7783C27.5698 11.439 27.5018 12.6529 27.4998 13.3447L27.5005 19.7184L27.5007 21.5573C27.4999 22.9595 27.5109 23.9611 26.4836 25.0629C25.0618 26.5878 22.686 26.6564 21.1742 25.2243C20.6882 24.7728 20.3342 24.1975 20.1502 23.5601C19.9702 22.9164 20.0012 22.2855 19.9948 21.627C19.9813 20.2622 20.0226 18.887 19.9864 17.5235C19.5857 17.5372 19.1388 17.5163 18.7324 17.5185C18.3389 17.5206 17.8848 17.5428 17.5017 17.5178C17.4463 19.5123 17.4931 21.7154 17.4934 23.7261L18.7472 23.7455L18.7514 26.2546C16.737 26.2901 14.6482 26.2599 12.6252 26.26L2.48764 26.2556C2.53419 25.6019 2.49804 24.4271 2.49997 23.7402C2.90143 23.7486 3.33561 23.7378 3.74164 23.7391C3.78245 22.2025 3.75139 20.5382 3.75154 18.9943L3.75157 10.2151L3.74917 6.78035C3.74864 6.18038 3.73425 5.57062 3.76124 4.97147C3.79294 4.26647 4.1953 3.87143 4.88014 3.76007ZM6.24013 13.7284C7.09973 13.763 7.95189 13.7363 8.80871 13.7475C10.8567 13.7742 12.9541 13.7101 14.9971 13.7516L15 6.27465L9.09125 6.26627L7.24074 6.27032C6.98615 6.27175 6.48863 6.29179 6.25106 6.26642C6.20791 8.73814 6.29389 11.2702 6.24013 13.7284Z" fill="white"/>
</svg>
