<svg width="30" height="30" viewBox="0 0 30 30" fill="none" xmlns="http://www.w3.org/2000/svg">
<g clip-path="url(#clip0_1_513)">
<path d="M23.0777 0.949078C23.694 0.91152 24.3124 0.973907 24.9088 1.13382C26.3576 1.53056 27.5893 2.48717 28.3322 3.7928C29.3437 5.56825 29.143 7.43613 28.6611 9.33494C28.0285 11.8276 26.0466 14.5912 23.7865 15.8754C23.6973 15.9064 23.6045 15.9263 23.5104 15.9346C22.9709 15.9802 22.1684 15.2591 21.7551 14.912C19.5068 12.9947 18.1038 10.2693 17.8497 7.32547C17.7205 5.8166 17.9852 4.5198 18.8742 3.2719C19.8838 1.85474 21.3596 1.09104 23.0777 0.949078ZM23.7159 8.40911C24.736 8.2531 25.4364 7.2996 25.2801 6.27957C25.1239 5.25955 24.1702 4.55941 23.1502 4.71594C22.1305 4.87242 21.4307 5.82571 21.587 6.84536C21.7432 7.865 22.6963 8.56505 23.7159 8.40911Z" fill="white"/>
<path d="M6.21286 14.074C6.82563 14.0376 7.44028 14.1 8.03322 14.2589C9.48233 14.6555 10.7142 15.6121 11.4572 16.9179C12.4669 18.6904 12.2688 20.564 11.7861 22.46C11.1487 24.9634 9.17149 27.7164 6.90136 29.0061C6.1818 29.2379 5.40362 28.4769 4.87997 28.037C2.63177 26.1197 1.22878 23.3943 0.974512 20.4506C0.686433 17.0874 2.79819 14.3564 6.21286 14.074ZM6.84092 21.5342C7.86101 21.3782 8.56138 20.4247 8.40511 19.4047C8.24884 18.3846 7.29514 17.6845 6.27514 17.8411C5.25552 17.9975 4.55574 18.9508 4.71192 19.9705C4.86813 20.9901 5.82125 21.6902 6.84092 21.5342Z" fill="white"/>
<path d="M17.532 14.0736C17.7857 14.0633 18.1465 14.0092 18.3846 14.0979C18.5495 14.1593 19.7518 15.6423 20.1482 15.9369C19.509 15.9413 17.7428 15.8895 17.2236 16.0478C16.9382 16.1358 16.6792 16.2935 16.4699 16.5066C16.112 16.866 15.938 17.3444 15.9407 17.8479C15.9508 18.6267 16.4493 19.3151 17.1861 19.5676C17.6684 19.7312 18.3684 19.6894 18.8877 19.6885L21.3122 19.6852C22.0049 19.6845 22.801 19.6511 23.4719 19.7918C24.353 19.9785 25.1619 20.4147 25.8019 21.0485C26.6852 21.9245 27.1835 23.116 27.1867 24.3601C27.1899 25.6117 26.6912 26.8124 25.8022 27.6935C25.1924 28.3064 24.4248 28.7386 23.5845 28.9423C22.8928 29.1032 22.1438 29.0742 21.4338 29.0745L19.473 29.075L12.5244 29.0747C11.6271 29.0756 10.7297 29.0702 9.8324 29.0582C10.4708 28.616 11.0427 27.7059 11.5705 27.1992C12.3946 27.147 13.5978 27.1858 14.4588 27.1858L19.9089 27.1864L21.6275 27.188C22.8233 27.1886 23.8579 27.1779 24.6823 26.1428C25.1475 25.562 25.3652 24.8214 25.2884 24.0812C25.1603 22.953 24.4119 22.0218 23.3117 21.6949C22.8149 21.5473 22.1055 21.5707 21.5817 21.5715L19.0831 21.5765C18.4826 21.5776 17.6385 21.6057 17.0658 21.4902C16.4742 21.3703 15.9204 21.1095 15.4512 20.7298C14.6831 20.1136 14.1922 19.2167 14.0869 18.2375C13.9752 17.238 14.2655 16.2351 14.894 15.4499C15.5932 14.5909 16.444 14.1857 17.532 14.0736Z" fill="white"/>
</g>
<defs>
<clipPath id="clip0_1_513">
<rect width="30" height="30" fill="white"/>
</clipPath>
</defs>
</svg>
