<svg width="30" height="30" viewBox="0 0 30 30" fill="none" xmlns="http://www.w3.org/2000/svg">
<g clip-path="url(#clip0_1_523)">
<path d="M13.0058 0H16.9648C17.3768 0.228929 17.546 0.356534 17.6543 0.839306C17.8938 1.9068 18.2237 2.99634 18.4394 4.06521C18.7266 4.22215 19.1255 4.35428 19.4377 4.48263C19.7228 4.59984 20.0651 4.77885 20.3412 4.87784C21.1735 4.39913 21.9846 3.87891 22.8151 3.39586C23.238 3.14481 23.6718 3.07336 24.0642 3.4275C24.6633 3.96812 25.2095 4.55962 25.7864 5.1232C25.9864 5.3107 26.2007 5.55504 26.3975 5.73771C26.6712 5.99177 26.9464 6.41051 26.7578 6.79904C26.2961 7.75046 25.6346 8.72839 25.1059 9.64582C25.3035 10.1446 25.5763 10.617 25.744 11.1329C25.7774 11.2359 25.8482 11.4273 25.8948 11.5203C26.176 11.628 26.6131 11.7217 26.9155 11.7952L28.5052 12.1823C29.1952 12.3511 29.6546 12.347 30 13.0393V16.9562C29.7586 17.3872 29.6473 17.5368 29.1306 17.6719C28.3734 17.87 27.6001 18.0393 26.8414 18.2324C26.6215 18.2884 26.1259 18.3922 25.9354 18.4639C25.7744 18.6967 25.6581 19.1081 25.5415 19.3796C25.4063 19.6939 25.2669 20.0003 25.1249 20.3116L26.1508 22.0139C26.4723 22.5476 27.1528 23.3945 26.591 23.9627C25.7175 24.846 24.8228 25.8344 23.8746 26.6348C23.4903 26.9592 22.7794 26.5023 22.4237 26.2874L21.1422 25.5115C20.976 25.411 20.5655 25.1544 20.3974 25.0882C20.0774 25.2125 19.7582 25.3769 19.4418 25.5179C19.1546 25.646 18.713 25.7738 18.4634 25.9346C18.0974 26.8945 17.9201 28.6999 17.4381 29.6546C17.3745 29.7809 17.092 29.9218 16.9577 30H13.0203C12.332 29.5796 12.4026 29.4287 12.2176 28.667L11.8066 26.9593C11.737 26.6677 11.6716 26.3728 11.5903 26.0859C11.5286 25.8686 11.2842 25.7998 11.0891 25.7298C10.5918 25.5515 10.1277 25.3304 9.65136 25.1025C8.99159 25.4162 8.35608 25.8604 7.7298 26.2382C7.46801 26.3961 7.20296 26.5803 6.91251 26.6812C6.69463 26.757 6.45683 26.7692 6.24565 26.6628C5.9448 26.5112 3.80534 24.3493 3.48545 23.9706C3.40822 23.8792 3.34075 23.7837 3.30316 23.669C3.24428 23.4893 3.26517 23.2929 3.32306 23.1162C3.41282 22.8422 3.57817 22.595 3.72592 22.3499C4.0498 21.8125 4.54644 21.1 4.80381 20.5598C4.8307 20.5033 4.86864 20.4167 4.86108 20.3532C4.82543 20.0529 4.5658 19.6591 4.4482 19.3739C4.32756 19.0814 4.22347 18.7804 4.11504 18.4831C3.81571 18.3738 3.41543 18.2934 3.1004 18.2134C2.37523 18.0293 1.63888 17.8707 0.914813 17.6826C0.380508 17.5438 0.267667 17.4552 0 16.9882V13.0142C0.0816902 12.8792 0.268165 12.5568 0.424664 12.4957C1.27376 12.164 2.33208 12.0061 3.2231 11.7601C3.46796 11.6926 3.7771 11.6486 3.96943 11.5599L3.98643 11.5519C4.06614 11.5153 4.09907 11.4668 4.13792 11.3904C4.245 11.1797 4.78146 9.94333 4.73057 9.78729C4.7289 9.78217 4.72708 9.7771 4.72538 9.77197C4.64704 9.53317 4.47337 9.30114 4.34338 9.08646L3.53139 7.74466C3.3578 7.45752 3.15003 7.16335 3.03094 6.84908C2.94378 6.61904 2.94703 6.39437 3.05074 6.16948C3.19813 5.84982 5.6833 3.35118 5.98339 3.24229C6.17432 3.173 6.37825 3.17016 6.5727 3.22778C6.90094 3.32502 7.2094 3.54812 7.50064 3.72375C8.17395 4.1298 8.85328 4.60582 9.56174 4.94071C9.89276 4.78043 10.2434 4.60518 10.5817 4.46408C10.8903 4.33538 11.2081 4.24506 11.5135 4.0991C11.6259 3.86095 11.7379 3.31157 11.8087 3.03097C11.9865 2.32643 12.1414 1.60687 12.3262 0.90414C12.4644 0.37846 12.5463 0.264224 13.0058 0ZM15.337 21.1348C18.7283 20.9467 21.3233 18.0423 21.1298 14.6514C20.9363 11.2604 18.0277 8.67006 14.6371 8.86901C11.2542 9.0675 8.67097 11.968 8.86403 15.3513C9.05707 18.7346 11.9535 21.3224 15.337 21.1348Z" fill="white"/>
</g>
<defs>
<clipPath id="clip0_1_523">
<rect width="30" height="30" fill="white"/>
</clipPath>
</defs>
</svg>
