<svg width="30" height="30" viewBox="0 0 30 30" fill="none" xmlns="http://www.w3.org/2000/svg">
<g clip-path="url(#clip0_1_503)">
<path d="M7.47943 0H7.96005C8.13179 0.102184 8.34621 0.221788 8.45241 0.393832C8.73771 0.855987 9.00873 1.34487 9.27788 1.81615L10.8797 4.62132L12.5518 7.54005C12.774 7.92829 13.1019 8.45827 13.2683 8.85255C13.5307 9.47408 12.4063 10.3601 12.0056 10.7548C12.3842 11.1403 12.8679 11.6455 13.2674 11.9934C13.8115 11.3558 14.7684 10.4676 15.3697 9.85477C15.8315 9.38414 16.7882 8.38743 17.2764 7.98782L20.3813 11.0885C20.7958 11.5028 21.5142 12.1748 21.8701 12.5944C20.5626 13.9401 19.1918 15.2844 17.8621 16.6122C18.1065 16.8598 18.9985 17.8133 19.2419 17.9105C19.5294 17.8966 20.3307 16.5711 20.9491 16.6873C21.1822 16.731 21.3157 16.8025 21.5284 16.9214C22.1786 17.2851 22.8251 17.6589 23.4712 18.0286L27.1863 20.1551L28.7346 21.0409C29.2659 21.3432 29.7103 21.4877 30 22.0605V22.4892C29.7334 22.9421 29.3596 23.7931 29.1119 24.3025L27.32 27.9796C27.0572 28.5186 26.7908 29.1415 26.4849 29.6473C26.3762 29.8271 26.1595 29.896 26.0097 30H25.5571C24.9603 29.6109 24.618 29.202 24.1154 28.6987L22.6144 27.1958L17.2856 21.8704C16.4007 20.9836 16.5327 20.6518 17.4254 19.8007C17.6068 19.6278 17.807 19.4271 17.9864 19.2485C17.6688 18.8674 16.8563 18.1055 16.4762 17.7312C15.5743 17.9227 15.0595 18.1287 14.1056 17.7982C14.408 18.3714 14.5971 18.9976 14.6623 19.6424C14.8037 21.0065 14.3835 22.3694 13.4986 23.4172C12.6055 24.4879 12.0901 23.7897 11.3585 23.0757C10.8144 22.5446 10.2469 21.902 9.67526 21.4167C9.44238 21.6816 8.99938 22.1658 8.68658 22.2301C7.88194 22.3953 7.24099 21.4656 7.83114 20.8003C7.97607 20.637 8.28155 20.3586 8.36323 20.2214C8.40987 19.8246 6.19034 18.1956 5.95632 17.5234C5.88029 17.305 5.90584 17.0652 6.00855 16.8601C6.3394 16.1996 7.46707 15.6285 8.14125 15.4111C9.46298 14.9848 10.8323 15.123 12.0633 15.7542C11.8112 14.873 11.8608 14.2649 12.154 13.4064C11.9178 13.1229 11.0352 12.2764 10.7507 12.0143C10.3286 12.3995 9.96413 12.8812 9.48814 13.2009C9.16585 13.4174 8.74345 13.303 8.47819 13.0493C7.97399 12.567 7.48333 12.0661 6.98965 11.572L4.12588 8.7058L1.67254 6.25526C1.22087 5.80415 0.288416 4.94273 0 4.45468V3.96554C0.104392 3.82207 0.206676 3.58893 0.372299 3.48932C0.831993 3.21281 1.41004 2.96754 1.89723 2.73067L5.65641 0.899713C6.00961 0.728098 7.20038 0.180264 7.47943 0Z" fill="white"/>
<path d="M20.8767 5.33968C21.8006 5.23529 22.6284 5.50415 23.3482 6.08983C24.7258 7.21052 24.9455 9.29739 23.7907 10.6568C23.586 10.8976 23.3475 11.1134 23.1408 11.3595L22.6428 10.86C21.2645 9.50862 19.9141 8.09244 18.5276 6.75393C19.1172 5.93379 19.9031 5.51048 20.8767 5.33968Z" fill="white"/>
<path d="M4.47043 20.5166C5.55919 20.3897 5.49887 21.1711 5.62962 21.9148C5.67037 22.1369 5.7362 22.3538 5.82585 22.5611C6.20217 23.4208 6.97561 24.0418 7.89635 24.2234C8.21366 24.2863 8.52992 24.275 8.841 24.3971C9.34332 24.5945 9.48893 25.0767 9.2794 25.5561C9.16953 25.8075 8.97116 25.9331 8.72106 26.0281C8.09683 26.1618 7.06701 25.8859 6.49569 25.6119C5.35634 25.068 4.48033 24.0929 4.06106 22.902C3.7993 22.1506 3.4845 20.8531 4.47043 20.5166Z" fill="white"/>
<path d="M0 21.1256C0.164041 20.8607 0.313072 20.5803 0.629136 20.5305C1.65032 20.3697 1.79791 21.128 1.78252 21.9407C1.77945 22.1029 1.85043 22.4805 1.88039 22.6391C2.22316 24.4169 3.26692 25.982 4.77647 26.9816C5.72769 27.6158 6.83306 28.0013 7.96969 28.0751C8.38506 28.1021 8.90769 28.075 9.18111 28.4402C9.39879 28.728 9.43734 29.1685 9.2323 29.4743C8.87221 29.9838 8.1428 29.8798 7.60966 29.8206C6.14238 29.6697 4.74059 29.1356 3.54483 28.272C1.81793 27.0225 0.574333 25.1631 0.176435 23.0649C0.145146 22.8999 0.0658307 22.3844 0 22.2622V21.1256Z" fill="white"/>
</g>
<defs>
<clipPath id="clip0_1_503">
<rect width="30" height="30" fill="white"/>
</clipPath>
</defs>
</svg>
