<svg width="30" height="30" viewBox="0 0 30 30" fill="none" xmlns="http://www.w3.org/2000/svg">
<g clip-path="url(#clip0_1_494)">
<path d="M4.12332 0.599618C5.95206 0.56866 7.87306 0.59808 9.70807 0.598097L19.5876 0.596808C20.702 0.59907 21.4262 0.744008 22.2481 1.55001C23.2078 2.49117 23.1611 3.49171 23.1612 4.72209L23.1612 6.62062L23.1557 13.452C21.3794 13.5046 19.9759 13.8132 18.4422 14.8007C16.5405 16.0223 15.201 17.9482 14.7173 20.1561C14.1984 22.5631 14.6931 24.7235 16.0222 26.7755C16.7499 27.762 17.8666 28.8944 18.9973 29.4099C17.8012 29.3756 16.4589 29.4085 15.2492 29.4085L7.88601 29.4096L5.24686 29.4108C4.79961 29.4111 4.35913 29.414 3.91353 29.3959C2.29449 29.3302 1.00009 28.0035 0.963305 26.3834C0.950156 25.8042 0.957238 25.225 0.958301 24.6451L0.958907 21.5769L0.958462 11.8876L0.957996 6.18026L0.958204 4.49325C0.958612 4.12148 0.934096 3.65633 0.995813 3.29654C1.27981 1.64093 2.50697 0.675664 4.12332 0.599618ZM16.6333 7.79384C17.1076 7.79598 17.678 7.83412 18.0218 7.46747C18.6718 6.77437 18.318 5.51545 17.3122 5.43834C16.8648 5.40407 16.4852 5.405 16.0478 5.40506L14.1193 5.40594L7.35606 5.40477C6.85189 5.41007 6.4151 5.37729 6.01288 5.77488C5.5352 6.23712 5.50716 7.01208 5.99094 7.48066C6.13991 7.62497 6.31435 7.72725 6.52083 7.75529C6.94842 7.81338 7.38635 7.79469 7.8171 7.79443L9.76707 7.79428L16.6333 7.79384ZM13.5521 13.4307C13.9278 13.401 14.225 13.3439 14.4869 13.037C14.9091 12.5422 14.8085 11.6704 14.2864 11.2879C13.8318 10.9547 12.8744 11.0431 12.3148 11.043L10.1045 11.0429L8.00876 11.0436C7.71386 11.0438 7.1634 11.0289 6.89085 11.0569C6.51134 11.0831 6.21002 11.1368 5.938 11.4487C5.72246 11.7005 5.61611 12.0278 5.64245 12.3582C5.72982 13.4571 6.66462 13.447 7.48956 13.4353C9.50653 13.4068 11.5361 13.4652 13.5521 13.4307Z" fill="white"/>
<path d="M22.513 15.9865C25.8831 15.6967 28.8485 18.1972 29.132 21.5678C29.4155 24.9384 26.9097 27.8992 23.5386 28.1766C20.1762 28.4532 17.2248 25.9552 16.9419 22.5934C16.6591 19.2315 19.1517 16.2754 22.513 15.9865ZM22.3115 21.8412C21.9706 21.4156 21.6099 20.8462 21.0383 20.7867C19.9824 20.6769 19.071 21.9168 19.9069 22.7852C20.1894 23.0788 20.456 23.411 20.7475 23.6928C20.9172 23.8811 21.0992 24.0725 21.2653 24.261C21.7065 24.7614 22.4195 24.8974 22.9356 24.4295C23.9013 23.5539 24.8192 22.6231 25.7628 21.7243C26.132 21.3725 26.3945 21.1091 26.4087 20.5636C26.4444 19.9276 25.9889 19.475 25.354 19.4595C25.291 19.4584 25.228 19.4596 25.1651 19.4631C24.6889 19.5501 24.4844 19.7976 24.1432 20.1119C23.5262 20.6803 22.9295 21.2743 22.3115 21.8412Z" fill="white"/>
</g>
<defs>
<clipPath id="clip0_1_494">
<rect width="30" height="30" fill="white"/>
</clipPath>
</defs>
</svg>
