<svg width="30" height="30" viewBox="0 0 30 30" fill="none" xmlns="http://www.w3.org/2000/svg">
<g clip-path="url(#clip0_1_476)">
<path d="M0.986561 6.7688C1.62056 6.45183 2.75137 6.00948 3.42668 5.72032L8.39863 3.59108L12.802 1.70334C13.4804 1.41249 14.5007 0.936693 15.17 0.710205C15.5099 0.798365 16.3469 1.18261 16.7112 1.33903L19.6324 2.59391C22.7988 3.9541 26.0167 5.29332 29.1654 6.6817C29.2826 7.00425 29.2154 8.61119 29.1713 9.03283C29.0613 9.08261 29.016 9.00989 28.9301 9.04768L29.1554 9.10051C28.2146 9.14978 27.1567 9.12687 26.2036 9.12708L21.4128 9.12758L6.68672 9.12664L2.69943 9.12435C2.46609 9.12421 1.12671 9.10584 0.965637 9.15262C1.01397 8.45928 0.963607 7.5127 0.986561 6.7688ZM15.5131 7.58521C16.7729 7.39352 17.64 6.21854 17.4517 4.95822C17.2635 3.69793 16.0908 2.82763 14.83 3.0125C13.5644 3.19809 12.69 4.37621 12.879 5.64134C13.068 6.90646 14.2485 7.7776 15.5131 7.58521Z" fill="white"/>
<path d="M14.9903 4.20037C15.5942 4.10404 16.1631 4.51179 16.2658 5.11466C16.3686 5.71751 15.9669 6.2907 15.3652 6.39986C14.9702 6.47149 14.5672 6.32545 14.3098 6.01736C14.0525 5.7093 13.9805 5.28672 14.1212 4.91082C14.262 4.53488 14.5939 4.26359 14.9903 4.20037Z" fill="white"/>
<path d="M8.21988 10.384L11.8331 10.3868L11.8367 21.1469L11.8344 24.1551C11.8358 24.5067 11.8651 25.4401 11.8223 25.7275C11.7589 25.7926 11.7818 25.7737 11.6675 25.7779L7.90192 25.7818C7.92881 25.3703 7.90956 24.7484 7.90959 24.3182L7.90965 21.5574L7.90831 13.1069C7.9079 12.7508 7.87754 10.561 7.93139 10.4333C8.03039 10.3703 8.09082 10.3888 8.21988 10.384Z" fill="white"/>
<path d="M18.1912 10.3699C18.528 10.3988 18.921 10.3764 19.2648 10.3833C20.1853 10.4017 21.1689 10.35 22.0818 10.403L22.0857 21.3023L22.0878 24.3308C22.088 24.6095 22.1031 25.5637 22.0636 25.7834C21.8945 25.775 21.7117 25.776 21.5421 25.7785C20.4204 25.7951 19.2835 25.7512 18.1636 25.7866C18.1822 24.4864 18.1671 23.1502 18.1672 21.8477V14.4748L18.1644 11.7187C18.1641 11.4411 18.1466 10.5943 18.1912 10.3699Z" fill="white"/>
<path d="M23.3016 10.3838L26.8541 10.3826C26.9414 10.4331 27.0751 10.4752 27.0803 10.5436C27.1149 11.0033 27.1067 11.5598 27.1066 12.0137L27.1072 15.3029L27.1076 22.0331C27.1075 23.0855 27.1556 24.7118 27.0747 25.7297L27.0352 25.7801C25.7984 25.768 24.5119 25.7694 23.275 25.7818C23.3167 25.5162 23.2972 24.6275 23.297 24.3289L23.2948 21.3541L23.3016 10.3838Z" fill="white"/>
<path d="M13.0429 10.3809C14.1219 10.415 15.3565 10.3843 16.4475 10.3833C16.5491 10.4089 16.6815 10.4279 16.7467 10.5038C16.8053 10.6266 16.8008 11.0182 16.8028 11.172C16.8083 12.1981 16.8066 13.2242 16.7978 14.2503L16.7982 20.9506L16.799 23.9504C16.7994 24.3638 16.8248 25.2634 16.7642 25.6489C16.6334 25.804 16.5458 25.6804 16.4448 25.7735C16.1345 25.791 15.7034 25.7782 15.3857 25.7781C14.6001 25.7738 13.8145 25.7757 13.029 25.7838C13.062 25.3437 13.0388 24.5585 13.0388 24.0993L13.0387 20.8498L13.0429 10.3809Z" fill="white"/>
<path d="M3.13554 10.3844C4.2964 10.4129 5.54723 10.339 6.69959 10.4021C6.74119 13.6525 6.70349 16.9822 6.70431 20.24L6.70598 23.7753C6.70618 24.3843 6.73041 25.1926 6.68591 25.7826C6.34378 25.7597 5.77967 25.7774 5.42418 25.7775L3.08166 25.7821C3.1298 24.6366 3.08679 23.1331 3.08711 21.9614L3.08632 14.2967L3.08617 11.7978C3.08617 11.6034 3.05699 10.4885 3.13554 10.3844Z" fill="white"/>
<path d="M26.8541 10.3826C26.9994 10.3833 27.1493 10.3862 27.2941 10.3843C27.2746 10.8487 27.2918 11.352 27.2925 11.8213L27.2908 14.3591L27.2902 22.4907L27.2925 24.8804C27.2926 25.049 27.3171 25.6633 27.2482 25.7634C27.1562 25.7875 27.1269 25.7837 27.0353 25.7801L27.0747 25.7297C27.1557 24.7118 27.1075 23.0855 27.1076 22.0331L27.1073 15.3029L27.1067 12.0137C27.1068 11.5598 27.115 11.0033 27.0803 10.5436C27.0752 10.4752 26.9415 10.4331 26.8541 10.3826Z" fill="white"/>
<path d="M29.1654 6.68188C29.294 6.73919 29.3053 6.72135 29.3801 6.81996C29.4237 7.04637 29.4164 8.93086 29.3938 9.19699C28.4382 9.25342 27.0287 9.20924 26.0431 9.20886L19.6534 9.20821L1.62468 9.21296C1.4682 9.21193 1.06898 9.23358 0.965637 9.15281C1.12671 9.10602 2.46609 9.12439 2.69943 9.12454L6.68672 9.12683L21.4128 9.12776L26.2036 9.12726C27.1567 9.12706 28.2146 9.14997 29.1554 9.10069L28.9301 9.04787C29.016 9.01008 29.0613 9.08279 29.1713 9.03302C29.2154 8.61138 29.2826 7.00444 29.1654 6.68188Z" fill="white"/>
<path d="M16.4475 10.3833L16.9576 10.3903L16.9584 20.7533L16.9579 24.0836C16.9579 24.5715 16.9349 25.304 16.9637 25.7788C16.8458 25.7783 16.5487 25.7846 16.4448 25.7735C16.5458 25.6804 16.6334 25.804 16.7642 25.649C16.8248 25.2634 16.7994 24.3639 16.799 23.9505L16.7982 20.9507L16.7979 14.2503C16.8066 13.2242 16.8083 12.1982 16.8028 11.1721C16.8008 11.0182 16.8053 10.6267 16.7467 10.5039C16.6816 10.4279 16.5491 10.4089 16.4475 10.3833Z" fill="white"/>
<path d="M0 26.9751L18.5115 26.9738L25.9775 26.9738C27.2603 26.9737 28.7309 26.9381 30 26.9857V29.3175L0 29.3186V26.9751Z" fill="white"/>
</g>
<defs>
<clipPath id="clip0_1_476">
<rect width="30" height="30" fill="white"/>
</clipPath>
</defs>
</svg>
