<svg width="46" height="46" viewBox="0 0 46 46" fill="none" xmlns="http://www.w3.org/2000/svg">
<rect width="46" height="46" rx="3" fill="white" fill-opacity="0.1"/>
<path fill-rule="evenodd" clip-rule="evenodd" d="M32.3767 24.9982C33.2392 25.8402 34.1494 26.6324 34.923 27.5594C35.2647 27.9713 35.5882 28.3964 35.8357 28.8744C36.1863 29.554 35.8687 30.3018 35.2594 30.3424L31.4716 30.3407C30.4947 30.4217 29.7154 30.0284 29.0601 29.3605C28.5356 28.8263 28.05 28.2578 27.5457 27.7056C27.339 27.4799 27.1226 27.2676 26.8641 27.0997C26.3471 26.7641 25.8982 26.8668 25.6027 27.4061C25.3018 27.9547 25.2335 28.562 25.204 29.1733C25.1634 30.0653 24.8938 30.2997 23.9979 30.3406C22.0831 30.4309 20.266 30.1412 18.5779 29.1753C17.0896 28.3238 15.9355 27.1217 14.931 25.7608C12.9752 23.1108 11.4774 20.1989 10.1313 17.2054C9.82831 16.531 10.0499 16.169 10.794 16.1562C12.0297 16.1321 13.2652 16.1339 14.5023 16.1544C15.0046 16.1618 15.337 16.4498 15.5309 16.9243C16.1995 18.5681 17.0175 20.1321 18.0443 21.5818C18.3178 21.9677 18.5966 22.3537 18.9937 22.6253C19.4329 22.9261 19.7674 22.8264 19.974 22.3371C20.1051 22.0268 20.1625 21.6926 20.1921 21.3603C20.29 20.2171 20.3029 19.0758 20.1312 17.9366C20.0258 17.2256 19.6253 16.7653 18.9158 16.6308C18.5538 16.5622 18.6077 16.4275 18.783 16.2208C19.0875 15.8644 19.3738 15.6426 19.9446 15.6426H24.2253C24.8993 15.7756 25.0489 16.0783 25.1412 16.7564L25.1449 21.5115C25.1375 21.774 25.276 22.553 25.7488 22.7267C26.1273 22.8504 26.3767 22.5477 26.6038 22.3077C27.6287 21.2199 28.3602 19.9343 29.0137 18.6032C29.3037 18.0178 29.5531 17.4099 29.7947 16.8026C29.9738 16.3519 30.2547 16.1301 30.7624 16.1399L34.8824 16.1436C35.0046 16.1436 35.1282 16.1454 35.2465 16.1656C35.9407 16.284 36.131 16.5826 35.9165 17.2605C35.5787 18.3242 34.9213 19.2105 34.2786 20.101C33.5915 21.0517 32.8567 21.9698 32.1754 22.9262C31.5494 23.7995 31.5991 24.2397 32.3767 24.9982Z" fill="white"/>
</svg>
